<svg width="9" height="12" viewBox="0 0 9 12" fill="none" xmlns="http://www.w3.org/2000/svg">
<path d="M2.14 0.230985C1.99393 0.109321 1.81621 0.0318127 1.62767 0.0075429C1.43913 -0.0167269 1.24757 0.0132478 1.07545 0.0939539C0.903336 0.17466 0.757789 0.302754 0.65587 0.463222C0.55395 0.623691 0.499881 0.809886 0.5 0.999985V11C0.500126 11.19 0.554368 11.376 0.656377 11.5363C0.758386 11.6965 0.90394 11.8244 1.076 11.905C1.20854 11.9677 1.35337 12.0001 1.5 12C1.73378 12.0002 1.96023 11.9184 2.14 11.769L8.14 6.76899C8.25289 6.67514 8.34373 6.5576 8.40608 6.42469C8.46843 6.29179 8.50075 6.14679 8.50075 5.99999C8.50075 5.85318 8.46843 5.70818 8.40608 5.57528C8.34373 5.44237 8.25289 5.32483 8.14 5.23099L2.14 0.230985ZM2.5 8.86498V3.13499L5.938 5.99999L2.5 8.86498Z" fill="#3367FE"/>
</svg>
