<svg width="25" height="24" viewBox="0 0 25 24" fill="none" xmlns="http://www.w3.org/2000/svg">

<path d="M15.9258 6.09406C15.7535 6.01384 15.5621 5.98404 15.3736 6.0081C15.1851 6.03217 15.0073 6.10913 14.8608 6.23006L8.86075 11.2301C8.74786 11.3239 8.65702 11.4414 8.59467 11.5744C8.53232 11.7073 8.5 11.8523 8.5 11.9991C8.5 12.1459 8.53232 12.2909 8.59467 12.4238C8.65702 12.5567 8.74786 12.6742 8.86075 12.7681L14.8608 17.7681C15.0418 17.9154 15.2684 17.9953 15.5018 17.9941C15.6484 17.9942 15.7932 17.9618 15.9258 17.8991C16.0978 17.8185 16.2434 17.6906 16.3454 17.5303C16.4474 17.3701 16.5016 17.184 16.5018 16.9941V6.99406C16.5007 6.80493 16.446 6.61998 16.344 6.46067C16.2421 6.30137 16.097 6.17425 15.9258 6.09406ZM14.5018 14.8591L11.0638 11.9941L14.5018 9.12906V14.8591Z" fill="#3367FE"/>
</svg>
