<svg width="580" height="277" viewBox="0 0 580 277" fill="none" xmlns="http://www.w3.org/2000/svg">
<path d="M871.414 141.336C866.587 163.575 841.098 176.338 818.313 174.984C795.527 173.631 774.866 161.641 755.17 150.232C735.474 138.822 714.62 127.026 691.834 126.252C666.152 125.285 642.208 138.049 617.106 143.463C538.129 160.674 453.36 104.98 377.473 133.021C337.888 147.718 309.889 182.333 281.311 213.274C252.732 244.408 217.782 274.963 175.687 276.896C126.64 279.217 81.4555 241.701 32.6021 246.342C5.76163 248.856 -18.5685 264.133 -45.409 268.001C-90.5936 274.576 -133.075 248.663 -173.239 226.811C-213.21 204.959 -262.257 186.394 -303 206.506V-30H883L871.414 141.336Z" fill="#3367FE"/>
</svg>
