<svg width="24" height="24" viewBox="0 0 24 24" fill="none" xmlns="http://www.w3.org/2000/svg">
<path d="M12 23C14.1756 23 16.3023 22.3549 18.1113 21.1462C19.9202 19.9375 21.3301 18.2195 22.1627 16.2095C22.9952 14.1995 23.2131 11.9878 22.7886 9.85401C22.3642 7.72022 21.3166 5.76021 19.7782 4.22183C18.2398 2.68345 16.2798 1.6358 14.146 1.21137C12.0122 0.786929 9.80047 1.00477 7.79048 1.83733C5.78049 2.66989 4.06253 4.07979 2.85383 5.88873C1.64514 7.69767 1 9.82441 1 12C1.00344 14.9163 2.16347 17.7122 4.22563 19.7744C6.28778 21.8365 9.08367 22.9966 12 23ZM12 3.00001C13.78 3.00001 15.5201 3.52785 17.0001 4.51678C18.4802 5.50571 19.6337 6.91132 20.3149 8.55585C20.9961 10.2004 21.1743 12.01 20.8271 13.7558C20.4798 15.5016 19.6226 17.1053 18.364 18.364C17.1053 19.6226 15.5016 20.4798 13.7558 20.8271C12.01 21.1743 10.2004 20.9961 8.55585 20.3149C6.91131 19.6337 5.50571 18.4802 4.51677 17.0001C3.52784 15.5201 3 13.78 3 12C3.00265 9.61387 3.95171 7.32622 5.63896 5.63897C7.32622 3.95171 9.61386 3.00265 12 3.00001ZM8.293 14.293L10.586 12L8.293 9.707C8.11084 9.5184 8.01005 9.2658 8.01233 9.0036C8.0146 8.74141 8.11977 8.49059 8.30518 8.30519C8.49059 8.11978 8.7414 8.01461 9.0036 8.01233C9.2658 8.01005 9.5184 8.11085 9.707 8.293L12 10.586L14.293 8.293C14.4816 8.11085 14.7342 8.01005 14.9964 8.01233C15.2586 8.01461 15.5094 8.11978 15.6948 8.30519C15.8802 8.49059 15.9854 8.74141 15.9877 9.0036C15.99 9.2658 15.8892 9.5184 15.707 9.707L13.414 12L15.707 14.293C15.8025 14.3853 15.8787 14.4956 15.9311 14.6176C15.9835 14.7396 16.0111 14.8708 16.0123 15.0036C16.0134 15.1364 15.9881 15.2681 15.9378 15.391C15.8875 15.5139 15.8133 15.6255 15.7194 15.7194C15.6255 15.8133 15.5139 15.8875 15.391 15.9378C15.2681 15.9881 15.1364 16.0134 15.0036 16.0123C14.8708 16.0111 14.7396 15.9835 14.6176 15.9311C14.4956 15.8787 14.3852 15.8025 14.293 15.707L12 13.414L9.707 15.707C9.5184 15.8892 9.2658 15.99 9.0036 15.9877C8.7414 15.9854 8.49059 15.8802 8.30518 15.6948C8.11977 15.5094 8.0146 15.2586 8.01233 14.9964C8.01005 14.7342 8.11084 14.4816 8.293 14.293Z" fill="#3367FE"/>
</svg>
