<svg width="22" height="22" viewBox="0 0 22 22" fill="none" xmlns="http://www.w3.org/2000/svg">
<path d="M21.12 0H0.88C0.39325 0 0 0.39325 0 0.88V21.12C0 21.6068 0.39325 22 0.88 22H21.12C21.6068 22 22 21.6068 22 21.12V0.88C22 0.39325 21.6068 0 21.12 0ZM20.24 20.24H15.1773V13.4805H18.0373L18.4662 10.1613H15.1773V8.041C15.1773 7.0785 15.444 6.424 16.8218 6.424H18.579V3.454C18.2737 3.41275 17.2315 3.322 16.016 3.322C13.4805 3.322 11.7452 4.87025 11.7452 7.711V10.1585H8.87975V13.4777H11.748V20.24H1.76V1.76H20.24V20.24Z" fill="white"/>
</svg>
