<svg width="30" height="31" viewBox="0 0 30 31" fill="none" xmlns="http://www.w3.org/2000/svg">
<path d="M15 0.5C12.0333 0.5 9.13319 1.37973 6.66645 3.02796C4.19972 4.67618 2.27713 7.01886 1.14181 9.75975C0.00649926 12.5006 -0.290551 15.5166 0.288228 18.4264C0.867006 21.3361 2.29562 24.0088 4.39341 26.1066C6.49119 28.2044 9.16394 29.633 12.0737 30.2118C14.9834 30.7906 17.9994 30.4935 20.7403 29.3582C23.4812 28.2229 25.8238 26.3003 27.472 23.8336C29.1203 21.3668 30 18.4667 30 15.5C30 13.5302 29.612 11.5796 28.8582 9.75975C28.1044 7.93986 26.9995 6.28628 25.6066 4.8934C24.2137 3.50052 22.5601 2.39563 20.7403 1.64181C18.9204 0.887987 16.9698 0.5 15 0.5V0.5ZM15 27.5C12.6266 27.5 10.3066 26.7962 8.33316 25.4776C6.35977 24.1591 4.8217 22.2849 3.91345 20.0922C3.0052 17.8995 2.76756 15.4867 3.23058 13.1589C3.69361 10.8311 4.8365 8.69295 6.51473 7.01472C8.19296 5.33649 10.3312 4.1936 12.6589 3.73058C14.9867 3.26755 17.3995 3.50519 19.5922 4.41345C21.7849 5.3217 23.6591 6.85977 24.9776 8.83316C26.2962 10.8065 27 13.1266 27 15.5C27 18.6826 25.7357 21.7348 23.4853 23.9853C21.2349 26.2357 18.1826 27.5 15 27.5V27.5ZM21 14H16.5V9.5C16.5 9.10218 16.342 8.72064 16.0607 8.43934C15.7794 8.15804 15.3978 8 15 8C14.6022 8 14.2207 8.15804 13.9393 8.43934C13.658 8.72064 13.5 9.10218 13.5 9.5V14H9.00001C8.60218 14 8.22065 14.158 7.93935 14.4393C7.65804 14.7206 7.50001 15.1022 7.50001 15.5C7.50001 15.8978 7.65804 16.2794 7.93935 16.5607C8.22065 16.842 8.60218 17 9.00001 17H13.5V21.5C13.5 21.8978 13.658 22.2794 13.9393 22.5607C14.2207 22.842 14.6022 23 15 23C15.3978 23 15.7794 22.842 16.0607 22.5607C16.342 22.2794 16.5 21.8978 16.5 21.5V17H21C21.3978 17 21.7794 16.842 22.0607 16.5607C22.342 16.2794 22.5 15.8978 22.5 15.5C22.5 15.1022 22.342 14.7206 22.0607 14.4393C21.7794 14.158 21.3978 14 21 14Z" fill="#3367FE"/>
</svg>
