<svg width="30" height="31" viewBox="0 0 30 31" fill="none" xmlns="http://www.w3.org/2000/svg">
<path d="M19.5 17H10.5C10.1022 17 9.72065 17.158 9.43935 17.4393C9.15804 17.7206 9.00001 18.1022 9.00001 18.5C9.00001 18.8978 9.15804 19.2794 9.43935 19.5607C9.72065 19.842 10.1022 20 10.5 20H19.5C19.8978 20 20.2794 19.842 20.5607 19.5607C20.842 19.2794 21 18.8978 21 18.5C21 18.1022 20.842 17.7206 20.5607 17.4393C20.2794 17.158 19.8978 17 19.5 17ZM19.5 11H10.5C10.1022 11 9.72065 11.158 9.43935 11.4393C9.15804 11.7206 9.00001 12.1022 9.00001 12.5C9.00001 12.8978 9.15804 13.2794 9.43935 13.5607C9.72065 13.842 10.1022 14 10.5 14H19.5C19.8978 14 20.2794 13.842 20.5607 13.5607C20.842 13.2794 21 12.8978 21 12.5C21 12.1022 20.842 11.7206 20.5607 11.4393C20.2794 11.158 19.8978 11 19.5 11ZM15 0.5C12.0333 0.5 9.13319 1.37973 6.66645 3.02796C4.19972 4.67618 2.27713 7.01886 1.14181 9.75975C0.00649926 12.5006 -0.290551 15.5166 0.288228 18.4264C0.867006 21.3361 2.29562 24.0088 4.39341 26.1066C6.49119 28.2044 9.16394 29.633 12.0737 30.2118C14.9834 30.7906 17.9994 30.4935 20.7403 29.3582C23.4812 28.2229 25.8238 26.3003 27.472 23.8336C29.1203 21.3668 30 18.4667 30 15.5C30 13.5302 29.612 11.5796 28.8582 9.75975C28.1044 7.93986 26.9995 6.28628 25.6066 4.8934C24.2137 3.50052 22.5601 2.39563 20.7403 1.64181C18.9204 0.887987 16.9698 0.5 15 0.5V0.5ZM15 27.5C12.6266 27.5 10.3066 26.7962 8.33316 25.4776C6.35977 24.1591 4.8217 22.2849 3.91345 20.0922C3.0052 17.8995 2.76756 15.4867 3.23058 13.1589C3.69361 10.8311 4.8365 8.69295 6.51473 7.01472C8.19296 5.33649 10.3312 4.1936 12.6589 3.73058C14.9867 3.26755 17.3995 3.50519 19.5922 4.41345C21.7849 5.3217 23.6591 6.85977 24.9776 8.83316C26.2962 10.8065 27 13.1266 27 15.5C27 18.6826 25.7357 21.7348 23.4853 23.9853C21.2349 26.2357 18.1826 27.5 15 27.5V27.5Z" fill="#3367FE"/>
</svg>
