<svg width="46" height="45" viewBox="0 0 46 45" fill="none" xmlns="http://www.w3.org/2000/svg">
<circle cx="23" cy="22.5" r="22.5" fill="#7B61FF" fill-opacity="0.2"/>
<path d="M17.9671 21.9078C17.7315 21.9078 17.5056 22.0014 17.3391 22.168C17.1725 22.3345 17.0789 22.5604 17.0789 22.796C17.0789 23.0315 17.1725 23.2575 17.3391 23.424C17.5056 23.5906 17.7315 23.6842 17.9671 23.6842C18.2026 23.6842 18.4286 23.5906 18.5951 23.424C18.7617 23.2575 18.8553 23.0315 18.8553 22.796C18.8553 22.5604 18.7617 22.3345 18.5951 22.168C18.4286 22.0014 18.2026 21.9078 17.9671 21.9078V21.9078ZM17.0789 26.3486C17.0789 26.1131 17.1725 25.8872 17.3391 25.7206C17.5056 25.554 17.7315 25.4605 17.9671 25.4605C18.2026 25.4605 18.4286 25.554 18.5951 25.7206C18.7617 25.8872 18.8553 26.1131 18.8553 26.3486C18.8553 26.5842 18.7617 26.8101 18.5951 26.9766C18.4286 27.1432 18.2026 27.2368 17.9671 27.2368C17.7315 27.2368 17.5056 27.1432 17.3391 26.9766C17.1725 26.8101 17.0789 26.5842 17.0789 26.3486ZM20.6316 22.796C20.6316 22.5604 20.7251 22.3345 20.8917 22.168C21.0583 22.0014 21.2842 21.9078 21.5197 21.9078H25.1363C25.3719 21.9078 25.5978 22.0014 25.7643 22.168C25.9309 22.3345 26.0245 22.5604 26.0245 22.796C26.0245 23.0315 25.9309 23.2575 25.7643 23.424C25.5978 23.5906 25.3719 23.6842 25.1363 23.6842H21.5197C21.2842 23.6842 21.0583 23.5906 20.8917 23.424C20.7251 23.2575 20.6316 23.0315 20.6316 22.796ZM21.5197 25.4605C21.2842 25.4605 21.0583 25.554 20.8917 25.7206C20.7251 25.8872 20.6316 26.1131 20.6316 26.3486C20.6316 26.5842 20.7251 26.8101 20.8917 26.9766C21.0583 27.1432 21.2842 27.2368 21.5197 27.2368H25.1363C25.3719 27.2368 25.5978 27.1432 25.7643 26.9766C25.9309 26.8101 26.0245 26.5842 26.0245 26.3486C26.0245 26.1131 25.9309 25.8872 25.7643 25.7206C25.5978 25.554 25.3719 25.4605 25.1363 25.4605H21.5197ZM16.1908 10.6578C15.4841 10.6578 14.8064 10.9386 14.3067 11.4382C13.807 11.9379 13.5263 12.6156 13.5263 13.3223V28.717C13.5263 29.4237 13.807 30.1014 14.3067 30.6011C14.8064 31.1008 15.4841 31.3815 16.1908 31.3815H26.8487C27.5553 31.3815 28.2331 31.1008 28.7327 30.6011C29.2324 30.1014 29.5131 29.4237 29.5131 28.717V18.7922C29.5131 18.4423 29.4442 18.0958 29.3103 17.7725C29.1764 17.4493 28.9802 17.1555 28.7328 16.9081L23.2629 11.4382C22.7635 10.9388 22.0862 10.6581 21.38 10.6578H16.1908ZM15.3026 13.3223C15.3026 13.0868 15.3962 12.8608 15.5628 12.6943C15.7293 12.5277 15.9552 12.4342 16.1908 12.4342H21.2284V16.2805C21.2284 16.6304 21.2973 16.9768 21.4312 17.3001C21.5651 17.6234 21.7614 17.9171 22.0088 18.1645C22.5085 18.6642 23.1862 18.9449 23.8929 18.9449H27.7368V28.717C27.7368 28.9526 27.6433 29.1785 27.4767 29.3451C27.3101 29.5116 27.0842 29.6052 26.8487 29.6052H16.1908C15.9552 29.6052 15.7293 29.5116 15.5628 29.3451C15.3962 29.1785 15.3026 28.9526 15.3026 28.717V13.3223ZM23.0047 16.2805V13.6918L26.4804 17.1686H23.8929C23.6573 17.1686 23.4314 17.0751 23.2649 16.9085C23.0983 16.7419 23.0047 16.516 23.0047 16.2805ZM19.1513 34.342C18.6002 34.3422 18.0625 34.1715 17.6125 33.8533C17.1624 33.5352 16.8221 33.0853 16.6384 32.5657H26.8487C27.8694 32.5657 28.8483 32.1602 29.5701 31.4385C30.2919 30.7167 30.6974 29.7378 30.6974 28.717V18.8727L31.6921 19.8674C32.193 20.3684 32.4737 21.0457 32.4737 21.7527V28.717C32.4737 29.4557 32.3282 30.1872 32.0455 30.8696C31.7628 31.5521 31.3485 32.1722 30.8261 32.6945C30.3038 33.2169 29.6837 33.6312 29.0013 33.9139C28.3188 34.1966 27.5874 34.342 26.8487 34.342H19.1513Z" fill="#7B61FF"/>
</svg>
