<svg width="46" height="46" viewBox="0 0 46 46" fill="none" xmlns="http://www.w3.org/2000/svg">
<circle cx="23" cy="23" r="22.5" fill="#E19728" fill-opacity="0.2"/>
<g clip-path="url(#clip0_2015_663)">
<path d="M27.0314 8.78943C26.8128 8.79817 26.6018 8.83752 26.3821 8.89218L11.5223 12.5126C9.76452 12.9433 8.66484 14.7163 9.09663 16.4751L11.1801 24.9818C11.3064 25.4885 11.5522 25.9576 11.897 26.3497C12.2418 26.7419 12.6756 27.0457 13.1619 27.2358V25.1862C13.1619 22.1725 15.6138 19.7206 18.6275 19.7206H32.3942L30.3446 11.2828C30.1634 10.5494 29.7347 9.90085 29.131 9.44664C28.5272 8.99243 27.7853 8.76032 27.0303 8.78943H27.0314ZM28.3628 13.504L29.2515 17.2272L25.5623 18.1148L24.6397 14.4255L28.3628 13.504V13.504ZM18.6275 21.9068C16.8173 21.9068 15.3482 23.376 15.3482 25.1862V33.9311C15.3482 35.7413 16.8173 37.2105 18.6275 37.2105H33.9312C35.7414 37.2105 37.2105 35.7413 37.2105 33.9311V25.1862C37.2105 23.376 35.7414 21.9068 33.9312 21.9068H18.6275ZM18.6275 23.6493H33.9312C34.774 23.6493 35.4681 24.3434 35.4681 25.1862V26.2793H17.0906V25.1862C17.0906 24.3434 17.7847 23.6493 18.6275 23.6493ZM17.0906 29.5587H35.4681V33.9311C35.4681 34.7739 34.774 35.4681 33.9312 35.4681H18.6275C18.2206 35.4658 17.831 35.3031 17.5433 35.0154C17.2556 34.7276 17.0929 34.338 17.0906 33.9311V29.5587Z" fill="#E19728"/>
</g>
<defs>
<clipPath id="clip0_2015_663">
<rect width="28.4211" height="28.4211" fill="white" transform="translate(8.78946 8.78943)"/>
</clipPath>
</defs>
</svg>
