<svg width="46" height="45" viewBox="0 0 46 45" fill="none" xmlns="http://www.w3.org/2000/svg">
<circle cx="23" cy="22.5" r="22.5" fill="#35BE64" fill-opacity="0.2"/>
<path d="M10.5658 16.5789C10.5658 15.9507 10.8153 15.3483 11.2595 14.9041C11.7037 14.46 12.3061 14.2104 12.9342 14.2104H31.8816C32.5097 14.2104 33.1121 14.46 33.5563 14.9041C34.0005 15.3483 34.25 15.9507 34.25 16.5789V28.421C34.25 29.0491 34.0005 29.6515 33.5563 30.0957C33.1121 30.5399 32.5097 30.7894 31.8816 30.7894H12.9342C12.3061 30.7894 11.7037 30.5399 11.2595 30.0957C10.8153 29.6515 10.5658 29.0491 10.5658 28.421V16.5789Z" stroke="#35BE64" stroke-width="2" stroke-linecap="round" stroke-linejoin="round"/>
<path d="M22.4079 26.0525C24.37 26.0525 25.9605 24.462 25.9605 22.4999C25.9605 20.5378 24.37 18.9473 22.4079 18.9473C20.4459 18.9473 18.8553 20.5378 18.8553 22.4999C18.8553 24.462 20.4459 26.0525 22.4079 26.0525Z" stroke="#35BE64" stroke-width="2" stroke-linecap="round" stroke-linejoin="round"/>
<path d="M29.5132 30.7894C29.5132 29.5331 30.0122 28.3283 30.9006 27.4399C31.7889 26.5516 32.9937 26.0526 34.25 26.0526M10.5658 18.9473C11.8221 18.9473 13.0269 18.4482 13.9152 17.5599C14.8036 16.6716 15.3026 15.4667 15.3026 14.2104L10.5658 18.9473Z" stroke="#35BE64" stroke-width="2" stroke-linecap="round" stroke-linejoin="round"/>
</svg>
