<svg width="24" height="24" viewBox="0 0 24 24" fill="none" xmlns="http://www.w3.org/2000/svg">
<path d="M8.83572 3.35156L8.36697 3.65606L3.35247 6.89081L2.43822 7.47581L3.30522 8.13281L5.93022 10.1248L3.30522 12.1168L2.39172 12.7971L3.37572 13.3596L6.09447 14.9533V17.4606L6.42297 17.6721L11.5785 21.0696L12.0007 21.3516L12.423 21.0703L17.5792 17.7186L17.907 17.4838V14.9773L20.6257 13.3596L21.54 12.8211L20.7427 12.1408L18.2355 10.0086L20.7195 7.96931L21.54 7.31306L20.6475 6.74981L15.7725 3.65606L15.3037 3.37481L14.8822 3.72656L12 6.09356L9.25797 3.72656L8.83572 3.35156ZM15.4455 5.20256L18.984 7.47656L16.992 9.09356L13.3125 6.96056L15.4455 5.20256ZM8.69547 5.22656L10.758 6.98381L7.21872 9.23381L5.03922 7.57031L8.69547 5.22656ZM12 7.96856L15.6097 10.0311L12 12.2811L8.60172 10.1481L12 7.96856ZM16.992 10.9221L18.9607 12.6096L16.8525 13.8748C16.785 13.9048 16.7205 13.9453 16.665 13.9918L15.3525 14.7658L13.3132 13.2186L16.992 10.9221ZM7.21872 11.0391L10.6875 13.2186L8.71872 14.7658L5.08572 12.6328L7.21872 11.0391ZM12.0232 14.1096L14.8357 16.2658L15.258 16.5703L15.6795 16.3123L16.4062 15.8668V16.6641L12 19.5463L7.59372 16.6401V15.8436L8.39097 16.3123L8.83572 16.5703L9.23397 16.2651L12.0232 14.1096Z" fill="#3367FE"/>
</svg>
