<svg width="20" height="21" viewBox="0 0 20 21" fill="none" xmlns="http://www.w3.org/2000/svg">
<path fill-rule="evenodd" clip-rule="evenodd" d="M10 1.3335C4.93754 1.3335 0.833374 5.43766 0.833374 10.5002C0.833374 15.5627 4.93754 19.6668 10 19.6668C15.0625 19.6668 19.1667 15.5627 19.1667 10.5002C19.1667 5.43766 15.0625 1.3335 10 1.3335ZM13.9734 8.95016C14.0465 8.86653 14.1022 8.76911 14.1372 8.66364C14.1722 8.55816 14.1857 8.44676 14.1769 8.33598C14.1682 8.22521 14.1374 8.1173 14.0864 8.0186C14.0353 7.91991 13.965 7.83242 13.8797 7.76128C13.7943 7.69014 13.6956 7.6368 13.5893 7.60438C13.483 7.57196 13.3713 7.56113 13.2608 7.57252C13.1502 7.58391 13.0431 7.61728 12.9457 7.67069C12.8482 7.7241 12.7624 7.79645 12.6934 7.8835L9.11004 12.1827L7.25587 10.3277C7.0987 10.1759 6.8882 10.0919 6.66971 10.0938C6.45121 10.0957 6.2422 10.1833 6.08769 10.3378C5.93318 10.4923 5.84554 10.7013 5.84365 10.9198C5.84175 11.1383 5.92574 11.3488 6.07754 11.506L8.57754 14.006C8.65942 14.0878 8.75745 14.1517 8.86539 14.1935C8.97332 14.2354 9.08879 14.2543 9.20443 14.249C9.32007 14.2438 9.43335 14.2145 9.53705 14.163C9.64075 14.1116 9.73258 14.0391 9.80671 13.9502L13.9734 8.95016Z" fill="#35BE64"/>
</svg>
