<svg width="130" height="32" viewBox="0 0 130 32" fill="none" xmlns="http://www.w3.org/2000/svg">
<path d="M51.6863 24.3031C48.7908 24.3031 47.3431 22.8218 47.3431 19.8591V11.8884H45.4287V8.90663H47.3431V4.74929H50.8005V8.90663H54.8579V11.8884H50.8005V19.3143C50.8005 20.5758 51.4196 21.2066 52.6578 21.2066C53.4007 21.2066 54.115 21.0346 54.8008 20.6905V23.529C53.8864 24.0451 52.8483 24.3031 51.6863 24.3031Z" fill="white"/>
<path d="M58.3484 24.0451V8.90663H61.8058V12.3185C62.8725 9.73809 64.6536 8.50523 67.149 8.61991V12.2898H66.949C65.387 12.2898 64.1393 12.8059 63.2059 13.8381C62.2725 14.8511 61.8058 16.3325 61.8058 18.2821V24.0451H58.3484Z" fill="white"/>
<path d="M70.2088 6.58425V3.28706L73.9234 6.58425H70.2088ZM70.3517 24.0451V8.90663H73.8091V24.0451H70.3517Z" fill="white"/>
<path d="M78.3275 24.0451V8.90663H81.7849V11.2577C82.985 9.48005 84.5565 8.59124 86.4995 8.59124C88.1758 8.59124 89.4902 9.11688 90.4427 10.1682C91.3951 11.2194 91.8713 12.6339 91.8713 14.4115V24.0451H88.4139V15.4437C88.4139 14.2586 88.1282 13.3507 87.5567 12.7199C87.0043 12.07 86.2138 11.7451 85.1851 11.7451C84.1755 11.7451 83.3564 12.0796 82.7278 12.7486C82.0992 13.4176 81.7849 14.3351 81.7849 15.501V24.0451H78.3275Z" fill="white"/>
<path d="M96.1036 6.58425V3.28706L99.8181 6.58425H96.1036ZM96.2464 24.0451V8.90663H99.7038V24.0451H96.2464Z" fill="white"/>
<path d="M109.28 24.3031C106.384 24.3031 104.937 22.8218 104.937 19.8591V11.8884H103.022V8.90663H104.937V4.74929H108.394V8.90663H112.451V11.8884H108.394V19.3143C108.394 20.5758 109.013 21.2066 110.251 21.2066C110.994 21.2066 111.708 21.0346 112.394 20.6905V23.529C111.48 24.0451 110.442 24.3031 109.28 24.3031Z" fill="white"/>
<path d="M119.028 28.7185C117.771 28.7185 116.58 28.4127 115.456 27.801L116.628 25.2206C117.332 25.6029 118.009 25.794 118.656 25.794C119.152 25.794 119.561 25.6602 119.885 25.3926C120.209 25.1441 120.514 24.6949 120.799 24.0451L114.513 8.90663H118.199L122.485 20.1458L126.4 8.90663H130L124 24.4751C123.39 26.0234 122.714 27.1129 121.971 27.7437C121.228 28.3935 120.247 28.7185 119.028 28.7185Z" fill="white"/>
<path d="M15.2405 11.7839C14.8278 11.3626 14.4624 10.8806 14.158 10.3419C12.281 7.01951 13.4354 2.79479 16.7364 0.905676C20.0374 -0.983437 24.2351 0.178427 26.1121 3.50077C27.989 6.82312 26.8346 11.0478 23.5336 12.937C22.9921 13.2468 22.4265 13.4746 21.8509 13.6243L20.104 6.99013L15.2405 11.7839Z" fill="white"/>
<path d="M11.7456 15.2288C9.61175 13.0737 6.23288 12.5256 3.47831 14.102C0.177283 15.9911 -0.977128 20.2158 0.899865 23.5382C2.77686 26.8605 6.97447 28.0224 10.2755 26.1333C11.9263 25.1885 13.0403 23.6597 13.5068 21.9517L6.80651 20.0971L11.7456 15.2288Z" fill="white"/>
<path d="M18.171 23.2427C17.7041 24.9506 17.8846 26.8377 18.8233 28.4992C20.7003 31.8216 24.8979 32.9834 28.1989 31.0943C31.5 29.2052 32.6544 24.9805 30.7774 21.6581C29.2112 18.886 26.0295 17.618 23.101 18.3715L24.8721 25.0975L18.171 23.2427Z" fill="white"/>
</svg>
