<svg width="51" height="50" viewBox="0 0 51 50" fill="none" xmlns="http://www.w3.org/2000/svg">
<circle cx="25.5" cy="25" r="25" fill="#1EC925"/>
<path d="M33.8033 17.6061C33.9454 17.4735 34.1151 17.3683 34.3024 17.2964C34.4897 17.2245 34.6908 17.1875 34.8939 17.1875C35.097 17.1875 35.2981 17.2245 35.4854 17.2964C35.6726 17.3683 35.8423 17.4735 35.9845 17.6061C36.5803 18.1561 36.5887 19.0449 36.0053 19.6044L23.6866 32.9074C23.5467 33.0477 23.377 33.1605 23.1878 33.2388C22.9986 33.3171 22.7939 33.3594 22.5862 33.3629C22.3785 33.3665 22.1722 33.3313 21.9799 33.2595C21.7876 33.1878 21.6134 33.0809 21.4679 32.9455L13.972 26.0066C13.6829 25.7373 13.521 25.3751 13.521 24.9979C13.521 24.6207 13.6829 24.2586 13.972 23.9892C14.1142 23.8567 14.2839 23.7514 14.4712 23.6796C14.6584 23.6077 14.8595 23.5707 15.0626 23.5707C15.2658 23.5707 15.4669 23.6077 15.6541 23.6796C15.8414 23.7514 16.0111 23.8567 16.1533 23.9892L22.5116 29.8757L33.7616 17.6479C33.7746 17.6332 33.7885 17.6192 33.8033 17.6061Z" fill="white"/>
</svg>
