<svg width="53" height="53" viewBox="0 0 53 53" fill="none" xmlns="http://www.w3.org/2000/svg">
<rect width="53" height="53" rx="8" fill="#BE3535" fill-opacity="0.1"/>
<path d="M17 15V20H16V22H19V17H35V37H19V34H17V39H37V15H17ZM27 21C24.8 21 23 22.8 23 25C23 26.113 23.477 27.117 24.219 27.844C23.5386 28.3036 22.9808 28.9225 22.5941 29.6468C22.2074 30.3711 22.0034 31.1789 22 32H24C24 31.2044 24.3161 30.4413 24.8787 29.8787C25.4413 29.3161 26.2044 29 27 29C27.7956 29 28.5587 29.3161 29.1213 29.8787C29.6839 30.4413 30 31.2044 30 32H32C31.9966 31.1789 31.7926 30.3711 31.4059 29.6468C31.0192 28.9225 30.4614 28.3036 29.781 27.844C30.523 27.117 31 26.114 31 25C31 22.8 29.2 21 27 21ZM17 23V25H16V27H19V23H17ZM27 23C28.117 23 29 23.883 29 25C29 26.117 28.117 27 27 27C25.883 27 25 26.117 25 25C25 23.883 25.883 23 27 23ZM17 28V30H16V32H19V28H17Z" fill="#BE3535"/>
</svg>
