<svg width="53" height="53" viewBox="0 0 53 53" fill="none" xmlns="http://www.w3.org/2000/svg">
<rect width="53" height="53" rx="8" fill="#35BE64" fill-opacity="0.1"/>
<path d="M32 15C30.207 15 28.582 15.336 27.312 15.969C26.043 16.602 25 17.633 25 19V23C25 23.129 25.043 23.254 25.063 23.375C24.062 23.1206 23.0328 22.9946 22 23C20.207 23 18.582 23.336 17.312 23.969C16.043 24.602 15 25.633 15 27V35C15 36.367 16.043 37.398 17.313 38.031C18.582 38.664 20.207 39 22 39C23.793 39 25.418 38.664 26.688 38.031C27.956 37.398 29 36.367 29 35V34.594C29.9782 34.8585 30.9867 34.9949 32 35C33.793 35 35.418 34.664 36.688 34.031C37.956 33.398 39 32.367 39 31V19C39 17.633 37.957 16.602 36.687 15.969C35.419 15.336 33.794 15 32 15ZM32 17C33.523 17 34.879 17.328 35.781 17.781C36.684 18.234 37 18.711 37 19C37 19.29 36.684 19.766 35.781 20.219C34.88 20.672 33.523 21 32 21C30.477 21 29.121 20.672 28.219 20.219C27.316 19.766 27 19.289 27 19C27 18.71 27.316 18.234 28.219 17.781C29.12 17.328 30.477 17 32 17ZM27 21.844C27.105 21.902 27.203 21.977 27.313 22.031C28.582 22.664 30.207 23 32 23C33.793 23 35.418 22.664 36.688 22.031C36.797 21.977 36.895 21.902 37 21.844V23C37 23.29 36.684 23.766 35.781 24.219C34.879 24.672 33.523 25 32 25C30.477 25 29.121 24.672 28.219 24.219C27.316 23.766 27 23.289 27 23V21.844ZM22 25C23.523 25 24.879 25.328 25.781 25.781C26.684 26.234 27 26.711 27 27C27 27.29 26.684 27.766 25.781 28.219C24.879 28.672 23.523 29 22 29C20.477 29 19.121 28.672 18.219 28.219C17.316 27.766 17 27.289 17 27C17 26.71 17.316 26.234 18.219 25.781C19.12 25.328 20.477 25 22 25ZM37 25.844V27C37 27.29 36.684 27.766 35.781 28.219C34.879 28.672 33.523 29 32 29C30.9813 29.0055 29.9684 28.8472 29 28.531V27C29 26.871 28.957 26.746 28.937 26.625C29.867 26.867 30.898 27 32 27C33.793 27 35.418 26.664 36.688 26.031C36.797 25.977 36.895 25.902 37 25.844ZM17 29.844C17.105 29.902 17.203 29.977 17.313 30.031C18.582 30.664 20.207 31 22 31C23.793 31 25.418 30.664 26.688 30.031C26.797 29.977 26.895 29.902 27 29.844V31C27 31.29 26.684 31.766 25.781 32.219C24.879 32.672 23.523 33 22 33C20.477 33 19.121 32.672 18.219 32.219C17.316 31.766 17 31.289 17 31V29.844ZM37 29.844V31C37 31.29 36.684 31.766 35.781 32.219C34.879 32.672 33.523 33 32 33C30.863 33 29.836 32.84 29 32.562V30.625C29.918 30.867 30.918 31 32 31C33.793 31 35.418 30.664 36.688 30.031C36.797 29.977 36.895 29.902 37 29.844ZM17 33.844C17.105 33.902 17.203 33.977 17.313 34.031C18.582 34.664 20.207 35 22 35C23.793 35 25.418 34.664 26.688 34.031C26.797 33.977 26.895 33.902 27 33.844V35C27 35.29 26.684 35.766 25.781 36.219C24.879 36.672 23.523 37 22 37C20.477 37 19.121 36.672 18.219 36.219C17.316 35.766 17 35.289 17 35V33.844Z" fill="#35BE64"/>
</svg>
