<svg width="53" height="53" viewBox="0 0 53 53" fill="none" xmlns="http://www.w3.org/2000/svg">
<rect width="53" height="53" rx="8" fill="#E19728" fill-opacity="0.1"/>
<path d="M27 13C25.74 13 24.85 13.89 24.41 15H16V40H38V15H29.59C29.15 13.89 28.26 13 27 13ZM27 15C27.55 15 28 15.45 28 16V17H31V19H23V17H26V16C26 15.45 26.45 15 27 15ZM18 17H21V21H33V17H36V38H18V17ZM20 24V26H22V24H20ZM24 24V26H34V24H24ZM20 28V30H22V28H20ZM24 28V30H34V28H24ZM20 32V34H22V32H20ZM24 32V34H34V32H24Z" fill="#E19728"/>
</svg>
