<svg width="411" height="310" viewBox="0 0 411 310" fill="none" xmlns="http://www.w3.org/2000/svg">
<path d="M0.00816685 207.332C-0.233778 180.195 4.90181 153.278 15.1185 128.136C25.3351 102.995 40.4305 80.1253 59.5332 60.8489C78.6359 41.5725 101.367 26.2706 126.416 15.8268C151.464 5.38287 178.333 0.00377708 205.471 1.98824e-06C232.61 -0.00377311 259.48 5.36784 284.531 15.8048C309.583 26.2417 332.319 41.5372 351.427 60.8083C370.535 80.0794 385.636 102.944 395.86 128.083C406.084 153.222 411.227 180.138 410.992 207.275L402.773 207.204C402.998 181.152 398.06 155.314 388.246 131.18C378.431 107.047 363.933 85.0962 345.589 66.596C327.246 48.0957 305.419 33.412 281.37 23.3926C257.321 13.3731 231.525 8.21638 205.473 8.22C179.42 8.22363 153.626 13.3876 129.579 23.4137C105.533 33.4398 83.7104 48.1296 65.3719 66.6349C47.0333 85.1403 32.5417 107.095 22.7337 131.231C12.9257 155.367 7.99557 181.207 8.22784 207.259L0.00816685 207.332Z" fill="url(#paint0_linear_1816_604)" fill-opacity="0.2"/>
<path d="M0.00816685 207.332C-0.233778 180.195 4.90181 153.278 15.1185 128.136C25.3351 102.995 40.4305 80.1253 59.5332 60.8489C78.6359 41.5725 101.367 26.2706 126.416 15.8268C151.464 5.38287 178.333 0.00377708 205.471 1.98824e-06C232.61 -0.00377311 259.48 5.36784 284.531 15.8048C309.583 26.2417 332.319 41.5372 351.427 60.8083C370.535 80.0794 385.636 102.944 395.86 128.083C406.084 153.222 411.227 180.138 410.992 207.275L205.5 205.5L0.00816685 207.332Z" fill="url(#paint1_linear_1816_604)" fill-opacity="0.2"/>
<mask id="mask0_1816_604" style="mask-type:alpha" maskUnits="userSpaceOnUse" x="8" y="8" width="395" height="198">
<path d="M8.56335 205.501C8.56336 179.639 13.6573 154.03 23.5543 130.137C33.4514 106.243 47.9577 84.5329 66.245 66.2456C84.5324 47.9583 106.243 33.452 130.136 23.5549C154.03 13.6579 179.639 8.56396 205.501 8.56396C231.363 8.56397 256.972 13.6579 280.866 23.5549C304.759 33.452 326.469 47.9583 344.757 66.2456C363.044 84.533 377.55 106.243 387.447 130.137C397.344 154.03 402.438 179.639 402.438 205.501H382.745C382.745 182.226 378.16 159.177 369.253 137.673C360.345 116.169 347.29 96.6298 330.831 80.1712C314.373 63.7126 294.833 50.6569 273.329 41.7496C251.825 32.8423 228.777 28.2577 205.501 28.2577C182.225 28.2577 159.177 32.8423 137.673 41.7496C116.168 50.6569 96.6292 63.7126 80.1706 80.1712C63.712 96.6298 50.6563 116.169 41.749 137.673C32.8417 159.177 28.2571 182.225 28.2571 205.501H8.56335Z" fill="white"/>
</mask>
<g mask="url(#mask0_1816_604)">
<circle cx="205.501" cy="205.502" r="184.375" stroke="white" stroke-width="8" stroke-linejoin="round" stroke-dasharray="1.76 17.56"/>
</g>
<path d="M45.1252 214L28.0002 205.438L45.1252 196.875V205.438V214Z" fill="#87F0AB"/>
<defs>
<linearGradient id="paint0_linear_1816_604" x1="205.5" y1="0" x2="205.5" y2="205.5" gradientUnits="userSpaceOnUse">
<stop stop-color="#7B94E8"/>
<stop offset="1" stop-color="#7B94E8" stop-opacity="0"/>
</linearGradient>
<linearGradient id="paint1_linear_1816_604" x1="205.5" y1="0" x2="205.5" y2="205.5" gradientUnits="userSpaceOnUse">
<stop stop-color="#7B94E8"/>
<stop offset="1" stop-color="#7B94E8" stop-opacity="0"/>
</linearGradient>
</defs>
</svg>
