<svg width="522" height="325" viewBox="0 0 522 325" fill="none" xmlns="http://www.w3.org/2000/svg">
<path d="M442.015 52.2577V312.448C442.015 318.656 436.587 324.216 430.383 324.216H56.0919C49.8881 324.216 45.2354 318.656 45.2354 312.448V52.2577C45.2354 46.0504 49.8881 41.1362 56.0919 41.1362H430.383C436.587 41.1362 442.015 46.0504 442.015 52.2577Z" fill="#1D233C"/>
<path opacity="0.1" d="M442.015 84.7168V312.577C442.015 318.785 436.587 324.346 430.383 324.346H56.0919C49.8881 324.346 45.2354 318.785 45.2354 312.577V223.864C78.1926 160.498 156.644 150.282 248.536 187.267C378.685 239.771 434.131 168.516 442.015 84.7168Z" fill="#1D233C"/>
<path opacity="0.2" d="M339.783 294.603H149.923C146.304 294.603 143.461 291.628 143.461 288.137C143.461 284.516 146.434 281.671 149.923 281.671H339.783C343.402 281.671 346.245 284.645 346.245 288.137C346.374 291.758 343.402 294.603 339.783 294.603Z" fill="white"/>
<path d="M149.923 293.31C147.08 293.31 144.753 290.982 144.753 288.137C144.753 285.292 147.08 282.964 149.923 282.964H262.107C264.95 282.964 267.277 285.292 267.277 288.137C267.277 290.982 264.95 293.31 262.107 293.31H149.923Z" fill="#407BFF"/>
<path opacity="0.7" d="M149.923 293.31C147.08 293.31 144.753 290.982 144.753 288.137C144.753 285.292 147.08 282.964 149.923 282.964H262.107C264.95 282.964 267.277 285.292 267.277 288.137C267.277 290.982 264.95 293.31 262.107 293.31H149.923Z" fill="#5388FF"/>
<path opacity="0.2" d="M183.819 169.115H96.9674C90.7637 169.115 85.7231 164.071 85.7231 157.864V70.9612C85.7231 64.7539 90.7637 59.7104 96.9674 59.7104H183.819C190.023 59.7104 195.064 64.7539 195.064 70.9612V157.864C195.193 164.071 190.023 169.115 183.819 169.115Z" fill="#5388FF"/>
<path d="M198.683 139.371H125.918C120.748 139.371 116.483 135.104 116.483 129.931V56.995C116.483 51.8222 120.748 47.5547 125.918 47.5547H198.683C203.852 47.5547 208.117 51.8222 208.117 56.995V129.802C208.117 135.104 203.852 139.371 198.683 139.371Z" fill="#5388FF"/>
<path d="M169.215 82.8584V77.2977L166.372 77.039C165.984 75.2285 165.209 73.4181 164.304 71.8662L166.114 69.6678L162.236 65.7882L160.039 67.5987C158.488 66.5642 156.808 65.7882 154.869 65.5296L154.611 62.6846H149.053L148.795 65.5296C146.985 65.9176 145.176 66.6935 143.625 67.5987L141.428 65.7882L137.551 69.6678L139.36 71.8662C138.326 73.4181 137.551 75.0992 137.292 77.039L134.449 77.2977V82.8584L137.292 83.117C137.68 84.9275 138.455 86.738 139.36 88.2898L137.551 90.4882L141.428 94.3678L143.625 92.5573C145.176 93.5919 146.856 94.3678 148.795 94.6264L149.053 97.4715H154.611L154.869 94.6264C156.679 94.2385 158.488 93.4626 160.039 92.5573L162.236 94.3678L166.114 90.4882L164.304 88.2898C165.338 86.738 166.114 85.0568 166.372 83.117L169.215 82.8584ZM151.767 87.6432C147.632 87.6432 144.271 84.2809 144.271 80.1427C144.271 76.0045 147.632 72.6422 151.767 72.6422C155.903 72.6422 159.264 76.0045 159.264 80.1427C159.264 84.2809 155.903 87.6432 151.767 87.6432Z" fill="white"/>
<path d="M191.833 98.5062V94.1094L189.636 93.8508C189.378 92.4283 188.732 91.0058 187.956 89.8419L189.378 88.1608L186.276 85.0571L184.596 86.4796C183.432 85.7037 182.011 85.0571 180.589 84.7985L180.331 82.6001H175.936L175.678 84.7985C174.256 85.0571 172.834 85.7037 171.671 86.4796L169.991 85.0571L166.889 88.1608L168.311 89.8419C167.535 91.0058 166.889 92.4283 166.631 93.8508L164.434 94.1094V98.5062L166.631 98.7649C166.889 100.187 167.535 101.61 168.311 102.774L166.889 104.455L169.991 107.559L171.671 106.136C172.834 106.912 174.256 107.559 175.678 107.817L175.936 110.016H180.331L180.589 107.817C182.011 107.559 183.432 106.912 184.596 106.136L186.276 107.559L189.378 104.455L187.956 102.774C188.732 101.61 189.378 100.187 189.636 98.7649L191.833 98.5062ZM178.133 102.256C174.902 102.256 172.188 99.6701 172.188 96.3078C172.188 93.0749 174.773 90.3592 178.133 90.3592C181.365 90.3592 184.079 92.9456 184.079 96.3078C183.949 99.6701 181.365 102.256 178.133 102.256Z" fill="white"/>
<path d="M169.215 110.921V107.3L167.277 107.17C167.018 106.006 166.501 104.842 165.855 103.808L167.018 102.385L164.433 99.799L163.012 100.963C161.978 100.316 160.815 99.799 159.651 99.5404L159.522 97.6006H155.903L155.774 99.5404C154.611 99.799 153.448 100.316 152.414 100.963L150.992 99.799L148.407 102.385L149.57 103.808C148.924 104.842 148.407 106.006 148.149 107.17L146.21 107.3V110.921L148.149 111.05C148.407 112.214 148.924 113.378 149.57 114.412L148.407 115.835L150.992 118.421L152.414 117.257C153.448 117.904 154.611 118.421 155.774 118.68L155.903 120.619H159.522L159.651 118.68C160.815 118.421 161.978 117.904 163.012 117.257L164.433 118.421L167.018 115.835L165.855 114.412C166.501 113.378 167.018 112.214 167.277 111.05L169.215 110.921ZM157.842 114.024C155.128 114.024 152.931 111.826 152.931 109.11C152.931 106.394 155.128 104.196 157.842 104.196C160.556 104.196 162.753 106.394 162.753 109.11C162.753 111.826 160.556 114.024 157.842 114.024Z" fill="white"/>
<path opacity="0.2" d="M338.878 261.367H258.488C252.672 261.367 248.02 256.711 248.02 250.892V170.455C248.02 164.636 252.672 159.98 258.488 159.98H338.878C344.694 159.98 349.347 164.636 349.347 170.455V250.892C349.347 256.711 344.694 261.367 338.878 261.367Z" fill="#5388FF"/>
<path d="M349.605 239.512H282.269C277.487 239.512 273.48 235.633 273.48 230.719V163.343C273.48 158.558 277.358 154.549 282.269 154.549H349.605C354.387 154.549 358.394 158.429 358.394 163.343V230.719C358.394 235.633 354.517 239.512 349.605 239.512Z" fill="#5388FF"/>
<path d="M319.234 210.674C319.234 212.355 317.812 213.778 316.132 213.778C314.451 213.778 313.03 212.355 313.03 210.674C313.03 208.993 314.451 207.57 316.132 207.57C317.812 207.57 319.234 208.993 319.234 210.674Z" fill="white"/>
<path d="M315.873 180.154C299.071 180.154 285.5 193.733 285.5 210.544H309.798C309.798 206.665 312.512 204.596 315.873 204.596C316.519 204.596 317.165 204.725 317.682 204.984L329.056 191.793L321.043 207.441C321.689 208.346 321.947 209.381 321.947 210.674H346.374C346.374 193.733 332.675 180.154 315.873 180.154Z" fill="white"/>
<path opacity="0.2" d="M386.413 165.223H315.975C310.934 165.223 306.798 161.085 306.798 156.041V85.5625C306.798 80.5191 310.934 76.3809 315.975 76.3809H386.413C391.453 76.3809 395.589 80.5191 395.589 85.5625V156.041C395.589 161.085 391.582 165.223 386.413 165.223Z" fill="#5388FF"/>
<path d="M397.398 142.98H338.334C334.069 142.98 330.708 139.489 330.708 135.35V76.2514C330.708 71.9839 334.198 68.6216 338.334 68.6216H397.398C401.664 68.6216 405.024 72.1132 405.024 76.2514V135.35C405.024 139.489 401.664 142.98 397.398 142.98Z" fill="#5388FF"/>
<path d="M388.61 87.3736C388.61 86.0804 387.576 84.9165 386.154 84.9165H349.708C348.415 84.9165 347.252 85.9511 347.252 87.3736V95.3915C347.252 96.6847 348.286 97.8485 349.708 97.8485H386.154C387.447 97.8485 388.61 96.814 388.61 95.3915V87.3736ZM376.59 91.7705H374.522V89.7014H376.59V91.7705ZM382.148 92.805C380.985 92.805 380.08 91.8998 380.08 90.7359C380.08 89.572 380.985 88.6668 382.148 88.6668C383.311 88.6668 384.216 89.572 384.216 90.7359C384.216 91.8998 383.311 92.805 382.148 92.805Z" fill="white"/>
<path d="M388.61 101.598C388.61 100.305 387.576 99.1411 386.154 99.1411H349.708C348.415 99.1411 347.252 100.176 347.252 101.598V109.616C347.252 110.909 348.286 112.073 349.708 112.073H386.154C387.447 112.073 388.61 111.039 388.61 109.616V101.598ZM376.59 106.771H374.522V104.702H376.59V106.771ZM382.148 107.806C380.985 107.806 380.08 106.9 380.08 105.737C380.08 104.573 380.985 103.667 382.148 103.667C383.311 103.667 384.216 104.573 384.216 105.737C384.216 106.9 383.311 107.806 382.148 107.806Z" fill="white"/>
<path d="M388.61 115.823C388.61 114.53 387.576 113.366 386.154 113.366H349.708C348.415 113.366 347.252 114.401 347.252 115.823V123.841C347.252 125.134 348.286 126.298 349.708 126.298H386.154C387.447 126.298 388.61 125.264 388.61 123.841V115.823ZM376.59 121.772H374.522V119.703H376.59V121.772ZM382.148 122.806C380.985 122.806 380.08 121.901 380.08 120.737C380.08 119.574 380.985 118.668 382.148 118.668C383.311 118.668 384.216 119.574 384.216 120.737C384.216 121.901 383.311 122.806 382.148 122.806Z" fill="white"/>
<path opacity="0.2" d="M237.292 257.488H150.44C144.236 257.488 139.196 252.444 139.196 246.237V159.334C139.196 153.127 144.236 148.083 150.44 148.083H237.292C243.496 148.083 248.536 153.127 248.536 159.334V246.237C248.536 252.444 243.496 257.488 237.292 257.488Z" fill="#5388FF"/>
<path opacity="0.5" d="M244.379 253.629H171.615C166.445 253.629 162.18 249.362 162.18 244.189V171.382C162.18 166.209 166.445 161.942 171.615 161.942H244.379C249.549 161.942 253.814 166.209 253.814 171.382V244.189C253.814 249.362 249.549 253.629 244.379 253.629Z" fill="#5388FF"/>
<path d="M182.471 232.938C179.628 230.093 179.628 225.567 182.471 222.851L199.144 206.169C200.695 204.617 203.28 204.617 204.831 206.169L209.225 210.566C210.776 212.118 210.776 214.704 209.225 216.256L192.552 232.938C189.838 235.654 185.315 235.654 182.471 232.938Z" fill="white"/>
<path d="M213.361 205.264L210.13 202.031L228.999 183.15L233.135 182.245L232.231 186.383L213.361 205.264Z" fill="white"/>
<path d="M211.551 209.661L205.735 203.841C205.218 203.324 205.218 202.419 205.735 201.902C206.252 201.384 207.157 201.384 207.674 201.902L213.49 207.721C214.007 208.238 214.007 209.144 213.49 209.661C212.844 210.178 212.068 210.178 211.551 209.661Z" fill="white"/>
<path d="M203.668 198.54L195.654 190.522C197.205 186.513 194.104 181.599 190.872 180.306L190.743 186.513C190.743 187.935 189.58 189.099 188.158 189.099C186.737 189.099 185.573 187.935 185.573 186.513V180.435C182.989 181.47 180.274 184.444 180.274 187.936C180.274 191.944 183.376 195.048 187.124 195.695C188.417 195.824 189.709 195.695 191.002 195.177L199.015 203.195L203.668 198.54Z" fill="white"/>
<path d="M230.163 228.93V235.008C232.748 233.973 235.462 230.999 235.462 227.507C235.462 223.498 232.618 220.136 228.741 219.619C227.449 219.49 226.285 219.36 225.122 220.007L216.721 211.601L212.198 216.127L220.469 224.404C218.014 229.318 221.762 233.456 225.122 234.749V228.671C225.122 227.249 226.285 226.085 227.707 226.085C229.129 226.343 230.292 227.507 230.163 228.93Z" fill="white"/>
<path d="M229.756 144.647H304.429C309.818 144.647 314.107 140.246 314.107 134.964V60.2478C314.107 54.856 309.708 50.5645 304.429 50.5645H229.756C224.367 50.5645 220.078 54.966 220.078 60.2478V134.964C220.078 140.356 224.477 144.647 229.756 144.647Z" fill="#5388FF"/>
<path opacity="0.5" d="M221.73 158.191H296.402C301.791 158.191 306.08 153.789 306.08 148.507V73.7908C306.08 68.3989 301.681 64.1074 296.402 64.1074H221.73C216.341 64.1074 212.052 68.509 212.052 73.7908V148.507C212.052 153.899 216.451 158.191 221.73 158.191Z" fill="#5388FF"/>
<path d="M267.147 68.3906L238.333 79.7246C238.333 79.7246 241.963 119.339 267.147 126.821C292.331 119.339 295.96 79.7246 295.96 79.7246L267.147 68.3906ZM266.377 106.794C266.047 107.344 265.387 107.565 264.837 107.565C264.178 107.565 263.628 107.234 263.298 106.684L253.18 92.7092C252.52 91.8289 252.74 90.6185 253.62 89.9583C254.5 89.298 255.709 89.5181 256.369 90.3984L264.947 102.173L278.914 83.7961C279.574 82.9158 280.784 82.6957 281.664 83.466C282.543 84.1262 282.763 85.4467 281.993 86.327L266.377 106.794Z" fill="white"/>
<path d="M521.231 0H411.115V74.3587H521.231V0Z" fill="#5388FF"/>
<path opacity="0.7" d="M521.231 0H411.115V74.3587H521.231V0Z" fill="#5388FF"/>
<path d="M519.034 5.81982H413.183V72.0314H519.034V5.81982Z" fill="#5388FF"/>
<path d="M504.946 16.0361H417.965V17.9748H504.946V16.0361Z" fill="white"/>
<path d="M492.022 21.4673H417.965V23.4059H492.022V21.4673Z" fill="white"/>
<path d="M504.946 27.0283H417.965V28.967H504.946V27.0283Z" fill="white"/>
<path d="M492.022 32.4595H417.965V34.3981H492.022V32.4595Z" fill="white"/>
<path d="M427.4 38.0205H417.965V39.9606H427.4V38.0205Z" fill="white"/>
<path d="M466.173 43.4517H417.965V45.3903H466.173V43.4517Z" fill="white"/>
<path d="M492.022 49.0127H417.965V50.9514H492.022V49.0127Z" fill="white"/>
<path d="M427.4 54.4438H417.965V56.3825H427.4V54.4438Z" fill="white"/>
<path d="M427.4 60.0049H417.965V61.9435H427.4V60.0049Z" fill="white"/>
<path d="M110.116 146.144H0V220.502H110.116V146.144Z" fill="#5388FF"/>
<path opacity="0.7" d="M110.116 146.144H0V220.502H110.116V146.144Z" fill="#5388FF"/>
<path d="M107.919 151.963H2.06787V218.174H107.919V151.963Z" fill="#5388FF"/>
<path d="M93.8314 162.179H6.8501V164.118H93.8314V162.179Z" fill="white"/>
<path d="M80.907 167.61H6.8501V169.549H80.907V167.61Z" fill="white"/>
<path d="M93.8314 173.171H6.8501V175.11H93.8314V173.171Z" fill="white"/>
<path d="M80.907 178.603H6.8501V180.541H80.907V178.603Z" fill="white"/>
<path d="M16.2849 184.163H6.8501V186.102H16.2849V184.163Z" fill="white"/>
<path d="M55.0582 189.595H6.8501V191.533H55.0582V189.595Z" fill="white"/>
<path d="M80.907 195.156H6.8501V197.096H80.907V195.156Z" fill="white"/>
<path d="M16.2849 200.587H6.8501V202.526H16.2849V200.587Z" fill="white"/>
<path d="M16.2849 206.148H6.8501V208.087H16.2849V206.148Z" fill="white"/>
<line x1="45.7427" y1="301.469" x2="441.897" y2="301.469" stroke="white" stroke-width="2"/>
<circle cx="242.482" cy="314.515" r="4.01508" fill="white"/>
</svg>
