<svg width="454" height="410" viewBox="0 0 454 410" fill="none" xmlns="http://www.w3.org/2000/svg">
<path opacity="0.4" d="M7.50857 247.669L160.586 158.412C163.942 156.463 168.056 156.463 171.412 158.412L428.31 306.813C428.31 306.813 430.367 308.546 431.775 311.363C432.532 315.696 432.641 321.762 427.986 323.928L288.548 405.061C288.548 405.061 271.01 415.785 250.225 403.653L14.0041 266.951C14.0041 266.951 3.28648 262.076 4.8021 250.919L4.91037 250.377C5.45166 249.403 6.31772 248.536 7.50857 247.669Z" fill="url(#paint0_linear_595_1060)"/>
<path opacity="0.4" d="M2.8533 233.804L155.931 144.547C159.287 142.597 163.401 142.597 166.757 144.547L423.655 292.948C423.655 292.948 425.712 294.681 427.119 297.497C427.877 301.83 427.985 307.896 423.33 310.062L283.893 391.195C283.893 391.195 266.355 401.919 245.569 389.787L9.34882 252.977C9.34882 252.977 -1.36879 248.102 0.146828 236.945L0.255093 236.404C0.904646 235.537 1.66245 234.562 2.8533 233.804Z" fill="url(#paint1_linear_595_1060)"/>
<path d="M416.51 278.108C416.619 278.541 416.727 278.974 416.727 279.408V294.248C416.727 294.248 417.376 298.472 409.149 302.48L284.868 374.622C284.868 374.622 277.398 380.797 265.598 381.122C265.598 381.122 255.205 381.88 243.838 374.514L20.175 244.853C20.175 244.853 14.8703 242.253 14.7621 234.887V222.755C14.7621 222.755 14.6538 218.639 18.2264 216.256L161.561 132.74C164.7 130.899 168.49 130.899 171.629 132.74L412.288 271.717C412.288 271.717 415.319 274.317 416.51 278.108Z" fill="#1D233C"/>
<path d="M18.2266 216.256L161.561 132.74C164.701 130.899 168.49 130.899 171.629 132.74L412.288 271.717C412.288 271.717 414.129 273.342 415.536 275.941C416.294 279.949 416.402 285.69 412.072 287.748L281.404 363.79C281.404 363.79 264.948 373.864 245.462 362.49L24.3973 234.237C24.3973 234.237 14.3293 229.688 15.8449 219.289L15.9531 218.747C16.3862 217.881 17.144 217.014 18.2266 216.256Z" fill="#1D233C"/>
<path d="M37.2796 251.027L51.0284 258.935C52.6523 259.91 54.8174 258.718 54.8174 256.768C54.8174 255.902 54.3844 255.035 53.5184 254.602L39.7695 246.694C38.1456 245.719 35.9805 246.911 35.9805 248.861C36.0887 249.727 36.5218 250.594 37.2796 251.027Z" fill="#E0E0E0"/>
<path d="M333.883 326.862C342.097 323.568 347.06 316.666 344.969 311.447C342.879 306.227 334.525 304.666 326.312 307.959C318.098 311.253 313.135 318.155 315.226 323.374C317.316 328.594 325.669 330.155 333.883 326.862Z" fill="#E0E0E0"/>
<path d="M340.729 312.338C338.564 308.763 332.068 308.222 326.222 311.038C320.376 313.854 317.453 319.054 319.618 322.52C321.783 326.095 328.279 326.636 334.125 323.82C339.863 321.004 342.894 315.912 340.729 312.338Z" fill="white"/>
<path d="M382.084 271.392L247.193 349.708C246.219 350.25 245.136 350.25 244.162 349.708L44.3163 235.212C42.3677 234.021 42.2594 231.204 44.3163 230.013L179.965 150.288C180.939 149.746 182.021 149.746 182.996 150.288L382.084 266.192C384.032 267.275 384.032 270.2 382.084 271.392Z" fill="url(#paint2_linear_595_1060)"/>
<path d="M363.679 274.967L251.307 339.744C249.25 340.935 246.76 340.935 244.703 339.744L150.626 285.908C146.296 283.416 146.188 277.134 150.518 274.534L263.215 209.108C265.272 207.916 267.762 207.916 269.819 209.108L363.463 263.593C368.118 266.085 368.118 272.476 363.679 274.967Z" fill="#1D233C"/>
<path d="M252.606 211.057L205.297 238.354C203.24 239.546 200.75 239.546 198.693 238.354L125.294 198.275C120.963 195.784 120.855 189.501 125.185 186.901L172.819 158.954C174.876 157.763 177.366 157.763 179.423 158.954L252.389 199.683C256.936 202.175 256.936 208.457 252.606 211.057Z" fill="#1D233C"/>
<path d="M185.81 250.161L138.501 277.458C136.445 278.65 133.955 278.65 131.898 277.458L58.4982 237.379C54.1679 234.888 54.0596 228.605 58.3899 226.005L106.024 198.058C108.081 196.867 110.571 196.867 112.628 198.058L185.594 238.787C190.249 241.387 190.249 247.67 185.81 250.161Z" fill="#1D233C"/>
<path opacity="0.3" d="M357.076 270.959L252.606 331.294C250.766 332.377 248.384 332.377 246.544 331.294L159.071 281.141C154.957 278.758 154.957 272.909 158.962 270.526L263.757 209.649C265.706 208.566 267.979 208.566 269.928 209.649L357.076 260.343C361.082 262.726 361.082 268.576 357.076 270.959Z" fill="#1D233C"/>
<path d="M170.005 275.4L261.484 223.622" stroke="url(#paint3_linear_595_1060)" stroke-width="2" stroke-miterlimit="10" stroke-linecap="round" stroke-linejoin="round"/>
<path d="M182.779 282.766L263.973 236.729" stroke="url(#paint4_linear_595_1060)" stroke-width="2" stroke-miterlimit="10" stroke-linecap="round" stroke-linejoin="round"/>
<path d="M195.662 290.131L287.249 238.462" stroke="url(#paint5_linear_595_1060)" stroke-width="2" stroke-miterlimit="10" stroke-linecap="round" stroke-linejoin="round"/>
<path d="M208.545 297.606L268.737 263.701" stroke="url(#paint6_linear_595_1060)" stroke-width="2" stroke-miterlimit="10" stroke-linecap="round" stroke-linejoin="round"/>
<path d="M221.428 304.971L295.91 262.509" stroke="url(#paint7_linear_595_1060)" stroke-width="2" stroke-miterlimit="10" stroke-linecap="round" stroke-linejoin="round"/>
<path d="M234.311 312.337L325.789 260.668" stroke="url(#paint8_linear_595_1060)" stroke-width="2" stroke-miterlimit="10" stroke-linecap="round" stroke-linejoin="round"/>
<path d="M247.193 319.812L292.554 294.031" stroke="url(#paint9_linear_595_1060)" stroke-width="2" stroke-miterlimit="10" stroke-linecap="round" stroke-linejoin="round"/>
<path d="M228.681 74.5713L292.337 111.834C293.311 112.376 294.394 111.726 294.502 110.642L294.61 107.826C294.61 107.284 294.394 106.743 293.852 106.526L230.196 69.2635C229.222 68.7219 228.139 69.3718 228.031 70.4551L227.923 73.2714C227.923 73.813 228.248 74.2463 228.681 74.5713Z" fill="#3367FE"/>
<path d="M255.096 100.46L318.752 137.723C319.727 138.264 320.809 137.614 320.918 136.531L321.026 133.715C321.026 133.173 320.809 132.631 320.268 132.415L256.72 95.1522C255.746 94.6106 254.663 95.2605 254.555 96.3437L254.447 99.1601C254.339 99.5934 254.663 100.135 255.096 100.46Z" fill="#3367FE"/>
<path d="M304.137 138.156L348.199 163.936C349.173 164.478 350.255 163.828 350.364 162.745L350.472 159.928C350.472 159.387 350.256 158.845 349.714 158.629L305.653 132.848C304.678 132.306 303.596 132.956 303.488 134.04L303.379 136.856C303.488 137.397 303.704 137.939 304.137 138.156Z" fill="url(#paint10_linear_595_1060)"/>
<path d="M265.814 138.482L302.189 159.713C303.163 160.254 304.246 159.604 304.354 158.521L304.462 155.705C304.462 155.163 304.246 154.622 303.705 154.405L267.33 133.174C266.355 132.632 265.273 133.282 265.164 134.365L265.056 137.182C265.056 137.723 265.381 138.157 265.814 138.482Z" fill="url(#paint11_linear_595_1060)"/>
<path d="M223.701 113.784L260.076 135.015C261.05 135.557 262.133 134.907 262.241 133.824L262.35 131.008C262.35 130.466 262.133 129.924 261.592 129.708L225.217 108.477C224.242 107.935 223.16 108.585 223.052 109.668L222.943 112.485C222.943 113.026 223.16 113.568 223.701 113.784Z" fill="#3367FE"/>
<path d="M307.71 185.601L366.386 219.939C367.36 220.481 368.443 219.831 368.551 218.748L368.66 215.931C368.66 215.39 368.443 214.848 367.902 214.631L309.226 180.293C308.251 179.752 307.169 180.402 307.06 181.485L306.952 184.301C306.952 184.843 307.169 185.384 307.71 185.601Z" fill="#3367FE"/>
<path d="M308.143 174.553L366.819 208.891C367.793 209.432 368.876 208.783 368.984 207.699L369.092 204.883C369.092 204.341 368.876 203.8 368.334 203.583L309.658 169.245C308.684 168.703 307.601 169.353 307.493 170.437L307.385 173.253C307.385 173.795 307.71 174.336 308.143 174.553Z" fill="url(#paint12_linear_595_1060)"/>
<path d="M231.063 129.49L301.431 170.653C302.405 171.194 303.488 170.544 303.596 169.461L303.704 166.645C303.704 166.103 303.488 165.562 302.946 165.345L232.578 124.183C231.604 123.641 230.521 124.291 230.413 125.374L230.305 128.191C230.305 128.624 230.629 129.166 231.063 129.49Z" fill="url(#paint13_linear_595_1060)"/>
<path d="M333.042 166.428L391.61 200.766C392.584 201.308 393.667 200.658 393.775 199.575L393.884 196.758C393.884 196.217 393.667 195.675 393.126 195.459L334.666 161.229C333.692 160.687 332.609 161.337 332.501 162.42L332.393 165.237C332.284 165.67 332.609 166.212 333.042 166.428Z" fill="url(#paint14_linear_595_1060)"/>
<path d="M267.871 128.299L326.547 162.637C327.521 163.179 328.604 162.529 328.712 161.446L328.82 158.629C328.82 158.088 328.604 157.546 328.063 157.33L269.386 123.1C268.412 122.558 267.329 123.208 267.221 124.291L267.113 127.108C267.113 127.541 267.438 128.083 267.871 128.299Z" fill="#3367FE"/>
<path d="M242.213 158.629L300.89 192.967C301.864 193.509 302.946 192.859 303.055 191.775L303.163 188.959C303.163 188.417 302.946 187.876 302.405 187.659L243.729 153.321C242.755 152.78 241.672 153.429 241.564 154.513L241.456 157.329C241.564 157.871 241.78 158.412 242.213 158.629Z" fill="url(#paint15_linear_595_1060)"/>
<path opacity="0.5" d="M406.658 3.94533L452.127 30.5925C452.777 31.0258 453.643 30.4842 453.643 29.726L453.751 27.7762C453.751 27.3429 453.535 27.0179 453.21 26.8013L407.741 0.154065C407.092 -0.279223 406.225 0.262382 406.225 1.02064L406.117 2.97043C406.117 3.40372 406.334 3.72869 406.658 3.94533Z" fill="url(#paint16_linear_595_1060)"/>
<path opacity="0.5" d="M188.517 76.3047L233.986 102.952C234.636 103.385 235.502 102.843 235.502 102.085L235.61 100.135C235.61 99.7022 235.393 99.3772 235.069 99.1606L189.6 72.5134C188.95 72.0802 188.084 72.6217 188.084 73.38L187.976 75.3298C187.976 75.7631 188.193 76.1964 188.517 76.3047Z" fill="url(#paint17_linear_595_1060)"/>
<path opacity="0.5" d="M155.065 76.846L200.534 103.493C201.183 103.926 202.049 103.385 202.049 102.627L202.158 100.677C202.158 100.243 201.941 99.9185 201.616 99.7019L156.148 73.0547C155.498 72.6214 154.632 73.163 154.632 73.9213L154.524 75.8711C154.524 76.3043 154.74 76.6293 155.065 76.846Z" fill="#3367FE"/>
<path opacity="0.5" d="M397.024 248.861L428.527 267.276C429.177 267.709 430.043 267.167 430.043 266.409L430.151 264.459C430.151 264.026 429.934 263.701 429.61 263.484L398.106 245.07C397.457 244.636 396.591 245.178 396.591 245.936L396.482 247.886C396.482 248.319 396.699 248.644 397.024 248.861Z" fill="url(#paint18_linear_595_1060)"/>
<path opacity="0.5" d="M20.7161 283.199L46.6982 298.364C47.3478 298.797 48.2139 298.256 48.2139 297.498L48.3221 295.548C48.3221 295.114 48.1056 294.789 47.7808 294.573L21.7987 279.408C21.1491 278.974 20.2831 279.516 20.2831 280.274L20.1748 282.224C20.1748 282.657 20.3913 282.982 20.7161 283.199Z" fill="url(#paint19_linear_595_1060)"/>
<g opacity="0.5">
<path opacity="0.5" d="M394.749 319.054L436.645 343.534C437.295 343.968 438.161 343.426 438.161 342.668L438.269 340.718C438.269 340.285 438.053 339.96 437.728 339.743L395.832 315.262C395.182 314.829 394.316 315.371 394.316 316.129L394.208 318.079C394.208 318.512 394.425 318.837 394.749 319.054Z" fill="url(#paint20_linear_595_1060)"/>
<path opacity="0.5" d="M339.646 286.773L389.986 316.237C390.636 316.67 391.502 316.129 391.502 315.37L391.61 313.421C391.61 312.987 391.393 312.662 391.069 312.446L340.728 282.982C340.079 282.549 339.213 283.091 339.213 283.849L339.104 285.799C339.104 286.232 339.321 286.665 339.646 286.773Z" fill="url(#paint21_linear_595_1060)"/>
</g>
<g opacity="0.5">
<path opacity="0.5" d="M55.0335 172.711L96.9297 197.192C97.5792 197.625 98.4453 197.083 98.4453 196.325L98.5536 194.375C98.5536 193.942 98.337 193.617 98.0123 193.4L56.1161 168.92C55.4665 168.486 54.6005 169.028 54.6005 169.786L54.4922 171.736C54.4922 172.169 54.7087 172.494 55.0335 172.711Z" fill="url(#paint22_linear_595_1060)"/>
<path opacity="0.5" d="M8.37428 145.414L50.2704 169.894C50.9199 170.328 51.786 169.786 51.786 169.028L51.8943 167.078C51.8943 166.645 51.6777 166.32 51.353 166.103L9.56513 141.731C8.91558 141.297 8.04951 141.839 8.04951 142.597L7.94125 144.547C7.83299 144.872 8.0495 145.305 8.37428 145.414Z" fill="#3367FE"/>
</g>
<path opacity="0.5" d="M50.5954 150.18L103.317 181.052C104.183 181.593 105.266 180.943 105.266 179.968L105.374 177.477C105.374 177.044 105.158 176.502 104.725 176.286L52.0027 145.414C51.1367 144.872 50.0541 145.522 50.0541 146.497L49.9458 148.988C49.9458 149.53 50.2706 149.963 50.5954 150.18Z" fill="url(#paint23_linear_595_1060)"/>
<g opacity="0.5">
<path opacity="0.5" d="M344.951 380.905L386.847 405.386C387.497 405.819 388.363 405.278 388.363 404.519L388.471 402.57C388.471 402.136 388.254 401.811 387.93 401.595L346.034 377.114C345.384 376.681 344.518 377.222 344.518 377.981L344.41 379.93C344.41 380.364 344.626 380.689 344.951 380.905Z" fill="url(#paint24_linear_595_1060)"/>
<path opacity="0.5" d="M298.4 353.608L340.296 378.089C340.945 378.522 341.812 377.981 341.812 377.222L341.92 375.273C341.92 374.839 341.703 374.514 341.378 374.298L299.482 349.817C298.833 349.384 297.967 349.925 297.967 350.683L297.858 352.633C297.858 353.067 298.075 353.5 298.4 353.608Z" fill="url(#paint25_linear_595_1060)"/>
</g>
<path opacity="0.5" d="M340.621 358.374L393.343 389.246C394.209 389.788 395.291 389.138 395.291 388.163L395.4 385.671C395.4 385.238 395.183 384.697 394.75 384.48L342.028 353.608C341.162 353.067 340.079 353.717 340.079 354.691L339.971 357.183C339.971 357.724 340.188 358.158 340.621 358.374Z" fill="url(#paint26_linear_595_1060)"/>
<path opacity="0.4" d="M162.21 173.036L205.838 148.88C215.69 143.464 216.015 134.473 206.596 128.732L164.7 103.493C155.282 97.8602 139.692 97.6436 129.841 103.06L86.2124 127.215C76.3609 132.632 76.0361 141.622 85.4546 147.363L127.351 172.602C136.769 178.343 152.467 178.452 162.21 173.036Z" fill="url(#paint27_linear_595_1060)"/>
<path d="M163.509 157.112L197.827 177.26V209.757" stroke="#3367FE" stroke-miterlimit="10" stroke-linecap="round" stroke-linejoin="round" stroke-dasharray="4 4"/>
<path opacity="0.4" d="M149.219 358.916L192.847 334.76C202.699 329.344 203.023 320.353 193.605 314.612L151.709 289.373C142.29 283.741 126.701 283.524 116.85 288.94L73.2212 313.096C63.3697 318.512 63.0449 327.503 72.4634 333.244L114.36 358.483C123.778 364.224 139.367 364.332 149.219 358.916Z" fill="url(#paint28_linear_595_1060)"/>
<path d="M160.37 163.395L200.101 141.406C209.086 136.423 210.602 122.125 202.049 117.034L162.643 100.136C154.091 94.9361 139.909 94.8278 130.923 99.7022L88.4858 116.275C80.0416 123.208 81.9902 134.799 90.5427 139.998L128.65 162.962C137.202 168.162 151.492 168.378 160.37 163.395Z" fill="#3367FE"/>
<path d="M160.37 156.246L200.101 134.256C209.086 129.274 209.303 121.149 200.75 115.95L162.643 92.9859C154.091 87.7864 139.909 87.6781 130.924 92.5526L91.1926 114.542C82.2071 119.525 81.9906 127.649 90.5431 132.848L128.65 155.812C137.203 161.012 151.493 161.229 160.37 156.246Z" fill="#3367FE"/>
<path d="M124.969 111.942C136.877 105.335 155.823 105.551 167.19 112.484C178.557 119.308 178.232 130.249 166.324 136.856C154.415 143.464 135.47 143.247 124.103 136.315C112.736 129.49 113.061 118.55 124.969 111.942ZM123.778 111.184C111.22 118.117 110.787 129.707 122.804 136.965C134.821 144.222 154.848 144.439 167.406 137.506C179.964 130.574 180.397 118.983 168.381 111.726C156.364 104.468 136.444 104.251 123.778 111.184Z" fill="white"/>
<path d="M146.729 135.448C145.971 135.448 145.322 135.231 144.889 135.015L143.481 134.148C141.641 133.065 140.558 131.548 140.667 129.924C140.775 128.407 141.857 126.891 143.806 125.807L148.245 123.316C150.193 122.233 152.792 121.691 155.498 121.691C158.204 121.691 160.803 122.341 162.643 123.533L164.05 124.399C164.592 124.724 164.808 125.049 164.808 125.482C164.808 125.916 164.483 126.241 164.05 126.566L148.786 135.015C148.136 135.34 147.487 135.448 146.729 135.448Z" fill="url(#paint29_linear_595_1060)"/>
<path d="M132.331 122.883C128.975 120.825 128.975 118.333 132.439 116.383C135.903 114.434 140.234 114.542 143.59 116.6C147.271 118.875 147.812 122.016 144.672 123.749C141.641 125.591 136.012 125.158 132.331 122.883Z" fill="url(#paint30_linear_595_1060)"/>
<path d="M102.559 289.048C102.343 288.832 101.693 288.398 100.827 287.857" stroke="#3367FE" stroke-linecap="round" stroke-linejoin="round"/>
<path d="M97.147 285.475C87.945 279.733 69.7575 268.901 61.9629 264.243" stroke="#3367FE" stroke-linecap="round" stroke-linejoin="round" stroke-dasharray="3.99 3.99"/>
<path d="M60.0138 263.159C58.8229 262.401 58.1733 262.076 58.1733 262.076L60.0138 260.993" stroke="#3367FE" stroke-linecap="round" stroke-linejoin="round"/>
<path d="M63.9111 258.61L93.141 241.279" stroke="#3367FE" stroke-linecap="round" stroke-linejoin="round" stroke-dasharray="4.19 4.19"/>
<path d="M95.0898 240.195L97.0385 239.004" stroke="#3367FE" stroke-linecap="round" stroke-linejoin="round"/>
<path d="M147.271 345.917L187.001 323.928C195.987 318.945 197.503 304.647 188.95 299.556L149.544 282.657C140.991 277.458 126.81 277.35 117.824 282.224L75.3866 298.797C66.9424 305.73 68.8911 317.32 77.4436 322.52L115.551 345.484C124.103 350.684 138.285 350.9 147.271 345.917Z" fill="#3367FE"/>
<path d="M147.27 338.769L187.001 316.779C195.987 311.797 196.203 303.673 187.651 298.473L149.544 275.509C140.991 270.309 126.809 270.201 117.824 275.076L78.093 297.065C69.1075 302.048 68.891 310.172 77.4435 315.371L115.551 338.335C124.103 343.535 138.285 343.752 147.27 338.769Z" fill="#3367FE"/>
<path d="M116.958 298.256C116.525 303.78 116.092 309.413 115.659 314.938C115.659 315.587 115.55 316.237 115.55 316.996C115.55 317.104 115.659 317.212 115.767 317.321C121.18 320.787 126.593 324.145 132.006 327.611C132.547 327.936 133.305 327.936 133.846 327.611C137.202 325.661 140.666 323.712 144.022 321.653C144.564 321.328 144.564 320.895 144.022 320.57C141.857 319.162 139.692 317.862 137.527 316.454C136.877 316.021 136.119 315.587 135.47 315.154C134.712 314.721 134.82 314.179 135.578 313.746C136.769 312.988 138.068 312.338 139.259 311.58C140.558 310.821 141.857 310.063 143.156 309.305C143.914 308.872 144.672 308.872 145.43 309.305C148.244 311.038 151.059 312.879 153.874 314.613C154.632 315.046 155.173 315.046 155.931 314.613C159.287 312.663 162.535 310.713 165.891 308.763C166.648 308.33 166.648 308.005 165.999 307.572C160.586 304.214 155.281 300.747 149.868 297.39C149.652 297.281 149.435 297.173 149.111 297.173C141.208 297.173 133.413 297.281 125.51 297.281C122.912 297.281 120.205 297.281 117.607 297.281C117.499 297.281 117.391 297.281 117.174 297.281C117.066 297.714 117.066 298.039 116.958 298.256Z" fill="white"/>
<path fill-rule="evenodd" clip-rule="evenodd" d="M117.066 297.498C117.066 297.714 117.066 297.931 116.958 298.256C116.525 303.78 116.092 309.413 115.659 314.938C115.659 315.587 115.55 316.237 115.55 316.996C115.55 317.104 115.659 317.212 115.767 317.321C121.18 320.787 126.593 324.145 132.006 327.611C132.547 327.936 133.305 327.936 133.846 327.611C137.202 325.661 140.666 323.712 144.022 321.653C144.564 321.328 144.564 320.895 144.022 320.57C141.857 319.162 139.692 317.862 137.527 316.454C136.877 316.021 136.119 315.587 135.47 315.154C134.712 314.721 134.82 314.179 135.578 313.746C136.769 312.988 138.068 312.338 139.259 311.58C140.558 310.821 141.857 310.063 143.156 309.305C143.914 308.872 144.672 308.872 145.43 309.305C148.244 311.038 151.059 312.879 153.874 314.613C154.632 315.046 155.173 315.046 155.931 314.613C159.287 312.663 162.535 310.713 165.891 308.763C166.648 308.33 166.648 308.005 165.999 307.572C160.586 304.214 155.281 300.747 149.868 297.39C149.652 297.281 149.435 297.173 149.111 297.173C141.208 297.173 133.413 297.281 125.51 297.281C122.912 297.281 120.205 297.281 117.607 297.281C117.391 297.498 117.282 297.498 117.066 297.498Z" fill="white"/>
<path fill-rule="evenodd" clip-rule="evenodd" d="M108.514 292.082C107.756 292.515 107.323 293.057 107.214 293.706C106.781 297.606 106.348 301.614 105.915 305.514C105.807 306.597 105.699 307.68 105.591 308.763C105.266 311.905 104.941 314.938 104.616 318.079C104.508 318.945 105.266 319.595 106.457 319.92C108.297 320.354 110.137 319.595 110.354 318.404C110.57 316.671 110.679 314.829 110.895 313.096C111.004 311.905 111.112 310.713 111.328 309.521C111.545 307.03 111.87 304.539 112.086 302.047C112.303 299.773 112.627 297.498 112.844 295.115C112.844 294.898 113.06 294.898 113.277 294.898C116.2 294.898 119.123 294.79 122.046 294.79C129.732 294.681 137.527 294.681 145.213 294.573C147.378 294.573 149.544 294.573 151.709 294.465C152.358 294.465 153.008 294.465 153.549 294.14C154.632 293.707 155.173 292.948 154.74 292.19C154.415 291.432 153.224 290.89 151.925 290.89C147.27 290.89 142.615 290.998 137.96 290.998C133.521 290.998 129.191 291.107 124.752 291.107C120.205 291.107 115.55 291.215 111.004 291.215C110.137 291.432 109.271 291.648 108.514 292.082Z" fill="white"/>
<path d="M395.511 269.44L427.014 291.646C429.829 293.38 434.809 291.43 434.809 288.613L435.566 254.275C435.675 251.459 433.401 247.776 430.587 246.043L396.377 224.92C393.562 223.187 388.041 224.162 388.041 226.87L390.531 261.208C390.531 264.133 392.804 267.816 395.511 269.44Z" fill="#3367FE"/>
<path d="M392.046 270.307L426.256 291.429C429.071 293.163 431.344 292.296 431.452 289.48L432.21 255.142C432.319 252.325 430.045 248.642 427.23 246.909L393.021 225.786C390.206 224.053 387.932 224.92 387.824 227.736L387.066 262.074C387.066 264.891 389.232 268.573 392.046 270.307Z" fill="#3367FE"/>
<path d="M409.693 269.982C413.265 272.149 416.729 274.315 420.302 276.482C420.843 276.807 421.493 277.24 422.034 277.565C422.359 277.781 422.359 277.673 422.359 277.456C422.467 276.915 422.251 276.265 421.818 275.615C420.951 274.315 420.41 272.907 419.977 271.499C419.761 270.632 419.544 269.766 419.436 268.899C419.436 268.141 419.328 267.491 419.328 266.733C419.328 265.108 419.436 263.375 419.436 261.75C419.436 260.125 419.219 258.5 418.462 256.659C417.92 255.25 417.162 253.734 416.296 252.326C415.43 251.026 414.564 249.943 413.482 248.859C413.373 248.751 413.265 248.535 413.265 248.426C413.373 247.776 413.265 247.126 412.94 246.476C412.399 245.068 411.533 243.877 410.234 243.118C408.827 242.252 407.852 242.252 407.203 243.118C406.986 243.443 406.77 243.877 406.878 244.527C406.878 244.743 406.77 244.852 406.553 244.743C405.579 244.527 404.713 244.527 403.955 244.743C403.197 244.96 402.548 245.285 402.006 245.718C401.465 246.151 401.14 246.801 400.815 247.56C400.491 248.426 400.382 249.401 400.382 250.484C400.382 252.001 400.274 253.626 400.274 255.142C400.274 255.684 400.274 256.225 400.166 256.767C399.949 258.5 399.3 259.908 398.001 260.667C397.676 260.775 397.351 260.883 397.135 261.1C397.026 261.1 397.026 261.208 397.026 261.317C397.026 261.533 397.026 261.858 397.026 262.075C397.026 262.183 397.026 262.291 397.243 262.4C397.351 262.4 397.351 262.508 397.459 262.508C401.573 264.999 405.687 267.491 409.693 269.982Z" fill="white"/>
<path d="M409.693 271.065C408.61 270.415 407.528 269.766 406.445 269.116C406.228 269.007 406.12 269.007 406.12 269.224C406.228 270.632 406.878 272.04 408.177 273.448C408.827 274.207 409.584 274.748 410.342 274.965C411.533 275.398 412.399 275.29 412.94 274.423C413.049 274.207 413.157 273.882 413.265 273.557C413.373 273.34 413.265 273.232 412.94 273.015C411.858 272.365 410.775 271.715 409.693 271.065Z" fill="#3367FE"/>
<path d="M256.395 236.512C257.261 223.188 273.825 222.213 293.528 234.129C313.123 246.044 328.387 266.517 327.521 279.84C326.655 293.164 310.092 294.139 290.388 282.224C270.685 270.2 255.529 249.727 256.395 236.512Z" fill="url(#paint31_radial_595_1060)"/>
<path d="M238.641 229.579C238.965 224.38 262.999 234.671 292.229 252.544C321.458 270.417 333.8 282.007 333.475 287.098C333.15 292.298 320.268 289.048 291.038 271.175C261.808 253.302 238.316 234.671 238.641 229.579Z" fill="url(#paint32_radial_595_1060)"/>
<path d="M271.876 254.385L311.174 282.007C314.638 284.174 320.917 281.682 320.917 278.216L321.783 235.429C321.892 231.963 319.077 227.413 315.613 225.247L272.959 198.924C269.494 196.758 262.566 197.95 262.566 201.416L265.705 244.203C265.597 247.669 268.412 252.219 271.876 254.385Z" fill="#3367FE"/>
<path d="M267.546 255.36L310.2 281.682C313.664 283.848 316.587 282.765 316.587 279.191L317.453 236.403C317.561 232.937 314.747 228.388 311.282 226.221L268.628 199.899C265.164 197.733 262.241 198.816 262.241 202.39L261.375 245.178C261.267 248.644 264.082 253.302 267.546 255.36Z" fill="#3367FE"/>
<path d="M277.939 218.964L302.514 234.237C303.055 234.562 304.354 236.187 304.354 236.945L302.838 259.693C302.838 260.451 301.323 261.318 300.781 260.993L297.425 258.935L296.884 266.409L291.579 255.252L276.207 245.719C275.665 245.394 274.799 243.011 274.799 242.253L276.315 219.505C276.315 218.747 277.289 218.639 277.939 218.964Z" fill="#F3F3F3"/>
<path d="M270.577 240.737C270.577 239.87 271.227 239.22 272.093 239.22C272.959 239.22 273.608 239.87 273.608 240.737C273.608 241.603 272.959 242.253 272.093 242.253C271.227 242.253 270.577 241.495 270.577 240.737Z" fill="url(#paint33_radial_595_1060)"/>
<path d="M306.844 209.54C306.844 208.673 307.493 208.023 308.359 208.023C309.225 208.023 309.875 208.673 309.875 209.54C309.875 210.406 309.225 211.056 308.359 211.056C307.493 211.164 306.844 210.406 306.844 209.54Z" fill="url(#paint34_radial_595_1060)"/>
<path d="M266.03 228.929C266.03 228.063 266.68 227.413 267.546 227.413C268.412 227.413 269.061 228.063 269.061 228.929C269.061 229.796 268.412 230.446 267.546 230.446C266.68 230.446 266.03 229.796 266.03 228.929Z" fill="url(#paint35_radial_595_1060)"/>
<path d="M258.669 219.613C258.669 219.072 259.102 218.639 259.643 218.639C260.185 218.639 260.618 219.072 260.618 219.613C260.618 220.154 260.185 220.587 259.643 220.587C259.102 220.587 258.669 220.154 258.669 219.613Z" fill="url(#paint36_radial_595_1060)"/>
<path d="M320.701 269.225C320.701 268.359 321.35 267.709 322.216 267.709C323.082 267.709 323.732 268.359 323.732 269.225C323.732 270.092 323.082 270.742 322.216 270.742C321.458 270.742 320.701 270.092 320.701 269.225Z" fill="url(#paint37_radial_595_1060)"/>
<path d="M308.143 251.893C308.143 251.027 308.792 250.377 309.658 250.377C310.524 250.377 311.174 251.027 311.174 251.893C311.174 252.76 310.524 253.41 309.658 253.41C308.9 253.518 308.143 252.76 308.143 251.893Z" fill="url(#paint38_radial_595_1060)"/>
<path d="M309.658 232.504C309.658 231.637 310.308 230.988 311.174 230.988C312.04 230.988 312.689 231.637 312.689 232.504C312.689 233.371 312.04 234.021 311.174 234.021C310.308 234.021 309.658 233.262 309.658 232.504Z" fill="url(#paint39_radial_595_1060)"/>
<path d="M288.331 200.549C288.331 198.924 289.63 197.625 291.254 197.625C292.878 197.625 294.177 198.924 294.177 200.549C294.177 202.174 292.878 203.474 291.254 203.474C289.63 203.474 288.331 202.174 288.331 200.549Z" fill="url(#paint40_radial_595_1060)"/>
<path d="M308.9 266.95C308.9 265.759 309.875 264.892 310.957 264.892C312.04 264.892 313.014 265.867 313.014 266.95C313.014 268.033 312.04 269.008 310.957 269.008C309.875 269.008 308.9 268.142 308.9 266.95Z" fill="url(#paint41_radial_595_1060)"/>
<path d="M311.715 195.458C311.715 194.266 312.69 193.4 313.772 193.4C314.963 193.4 315.829 194.375 315.829 195.458C315.829 196.649 314.855 197.516 313.772 197.516C312.69 197.516 311.715 196.541 311.715 195.458Z" fill="url(#paint42_radial_595_1060)"/>
<path d="M64.0195 134.04C68.2048 134.04 71.5976 130.645 71.5976 126.457C71.5976 122.27 68.2048 118.875 64.0195 118.875C59.8342 118.875 56.4414 122.27 56.4414 126.457C56.4414 130.645 59.8342 134.04 64.0195 134.04Z" fill="url(#paint43_radial_595_1060)"/>
<path d="M159.396 388.488C159.396 385.021 162.21 382.097 165.783 382.097C169.247 382.097 172.17 384.913 172.17 388.488C172.17 391.954 169.355 394.879 165.783 394.879C162.21 394.879 159.396 391.954 159.396 388.488Z" fill="url(#paint44_radial_595_1060)"/>
<path d="M31.0003 190.259L28.1856 188.634V185.276L26.4534 184.193V187.659L23.6387 186.034V188.092L26.4534 189.825V193.183L28.1856 194.267V190.8L31.0003 192.425V190.259Z" fill="url(#paint45_linear_595_1060)"/>
<defs>
<linearGradient id="paint0_linear_595_1060" x1="432.105" y1="283.252" x2="4.69665" y2="283.252" gradientUnits="userSpaceOnUse">
<stop stop-color="#1D233C"/>
<stop offset="0.332" stop-color="#1D233C"/>
<stop offset="1" stop-color="#1D233C"/>
</linearGradient>
<linearGradient id="paint1_linear_595_1060" x1="427.461" y1="269.312" x2="0.0524286" y2="269.312" gradientUnits="userSpaceOnUse">
<stop stop-color="#1D233C"/>
<stop offset="0.332" stop-color="#1D233C"/>
<stop offset="1" stop-color="#1D233C"/>
</linearGradient>
<linearGradient id="paint2_linear_595_1060" x1="383.57" y1="249.955" x2="42.8476" y2="249.955" gradientUnits="userSpaceOnUse">
<stop stop-color="white"/>
<stop offset="0.3608" stop-color="#FCFCFE"/>
<stop offset="0.6072" stop-color="#F3F4FB"/>
<stop offset="0.8189" stop-color="#E4E6F7"/>
<stop offset="1" stop-color="#D0D4F1"/>
</linearGradient>
<linearGradient id="paint3_linear_595_1060" x1="168.869" y1="249.527" x2="262.534" y2="249.527" gradientUnits="userSpaceOnUse">
<stop stop-color="white"/>
<stop offset="0.3608" stop-color="#FCFCFE"/>
<stop offset="0.6072" stop-color="#F3F4FB"/>
<stop offset="0.8189" stop-color="#E4E6F7"/>
<stop offset="1" stop-color="#D0D4F1"/>
</linearGradient>
<linearGradient id="paint4_linear_595_1060" x1="181.742" y1="259.766" x2="265.109" y2="259.766" gradientUnits="userSpaceOnUse">
<stop stop-color="white"/>
<stop offset="0.3608" stop-color="#FCFCFE"/>
<stop offset="0.6072" stop-color="#F3F4FB"/>
<stop offset="0.8189" stop-color="#E4E6F7"/>
<stop offset="1" stop-color="#D0D4F1"/>
</linearGradient>
<linearGradient id="paint5_linear_595_1060" x1="194.616" y1="264.323" x2="288.281" y2="264.323" gradientUnits="userSpaceOnUse">
<stop stop-color="white"/>
<stop offset="0.3608" stop-color="#FCFCFE"/>
<stop offset="0.6072" stop-color="#F3F4FB"/>
<stop offset="0.8189" stop-color="#E4E6F7"/>
<stop offset="1" stop-color="#D0D4F1"/>
</linearGradient>
<linearGradient id="paint6_linear_595_1060" x1="207.489" y1="280.639" x2="269.862" y2="280.639" gradientUnits="userSpaceOnUse">
<stop stop-color="white"/>
<stop offset="0.3608" stop-color="#FCFCFE"/>
<stop offset="0.6072" stop-color="#F3F4FB"/>
<stop offset="0.8189" stop-color="#E4E6F7"/>
<stop offset="1" stop-color="#D0D4F1"/>
</linearGradient>
<linearGradient id="paint7_linear_595_1060" x1="220.362" y1="283.744" x2="296.995" y2="283.744" gradientUnits="userSpaceOnUse">
<stop stop-color="white"/>
<stop offset="0.3608" stop-color="#FCFCFE"/>
<stop offset="0.6072" stop-color="#F3F4FB"/>
<stop offset="0.8189" stop-color="#E4E6F7"/>
<stop offset="1" stop-color="#D0D4F1"/>
</linearGradient>
<linearGradient id="paint8_linear_595_1060" x1="233.236" y1="286.518" x2="326.901" y2="286.518" gradientUnits="userSpaceOnUse">
<stop stop-color="white"/>
<stop offset="0.3608" stop-color="#FCFCFE"/>
<stop offset="0.6072" stop-color="#F3F4FB"/>
<stop offset="0.8189" stop-color="#E4E6F7"/>
<stop offset="1" stop-color="#D0D4F1"/>
</linearGradient>
<linearGradient id="paint9_linear_595_1060" x1="246.109" y1="306.897" x2="293.629" y2="306.897" gradientUnits="userSpaceOnUse">
<stop stop-color="white"/>
<stop offset="0.3608" stop-color="#FCFCFE"/>
<stop offset="0.6072" stop-color="#F3F4FB"/>
<stop offset="0.8189" stop-color="#E4E6F7"/>
<stop offset="1" stop-color="#D0D4F1"/>
</linearGradient>
<linearGradient id="paint10_linear_595_1060" x1="329.274" y1="175.779" x2="347.867" y2="119.171" gradientUnits="userSpaceOnUse">
<stop stop-color="white"/>
<stop offset="0.3608" stop-color="#FCFCFE"/>
<stop offset="0.6072" stop-color="#F3F4FB"/>
<stop offset="0.8189" stop-color="#E4E6F7"/>
<stop offset="1" stop-color="#D0D4F1"/>
</linearGradient>
<linearGradient id="paint11_linear_595_1060" x1="286.813" y1="170.669" x2="303.256" y2="120.604" gradientUnits="userSpaceOnUse">
<stop stop-color="white"/>
<stop offset="0.3608" stop-color="#FCFCFE"/>
<stop offset="0.6072" stop-color="#F3F4FB"/>
<stop offset="0.8189" stop-color="#E4E6F7"/>
<stop offset="1" stop-color="#D0D4F1"/>
</linearGradient>
<linearGradient id="paint12_linear_595_1060" x1="341.013" y1="222.382" x2="363.647" y2="153.469" gradientUnits="userSpaceOnUse">
<stop stop-color="white"/>
<stop offset="0.3608" stop-color="#FCFCFE"/>
<stop offset="0.6072" stop-color="#F3F4FB"/>
<stop offset="0.8189" stop-color="#E4E6F7"/>
<stop offset="1" stop-color="#D0D4F1"/>
</linearGradient>
<linearGradient id="paint13_linear_595_1060" x1="270.188" y1="185.529" x2="296.099" y2="106.638" gradientUnits="userSpaceOnUse">
<stop stop-color="white"/>
<stop offset="0.3608" stop-color="#FCFCFE"/>
<stop offset="0.6072" stop-color="#F3F4FB"/>
<stop offset="0.8189" stop-color="#E4E6F7"/>
<stop offset="1" stop-color="#D0D4F1"/>
</linearGradient>
<linearGradient id="paint14_linear_595_1060" x1="365.923" y1="214.286" x2="388.557" y2="145.373" gradientUnits="userSpaceOnUse">
<stop stop-color="white"/>
<stop offset="0.3608" stop-color="#FCFCFE"/>
<stop offset="0.6072" stop-color="#F3F4FB"/>
<stop offset="0.8189" stop-color="#E4E6F7"/>
<stop offset="1" stop-color="#D0D4F1"/>
</linearGradient>
<linearGradient id="paint15_linear_595_1060" x1="275.105" y1="206.489" x2="297.739" y2="137.576" gradientUnits="userSpaceOnUse">
<stop stop-color="white"/>
<stop offset="0.3608" stop-color="#FCFCFE"/>
<stop offset="0.6072" stop-color="#F3F4FB"/>
<stop offset="0.8189" stop-color="#E4E6F7"/>
<stop offset="1" stop-color="#D0D4F1"/>
</linearGradient>
<linearGradient id="paint16_linear_595_1060" x1="432.013" y1="40.6468" x2="449.193" y2="-11.6579" gradientUnits="userSpaceOnUse">
<stop stop-color="white"/>
<stop offset="0.3608" stop-color="#FCFCFE"/>
<stop offset="0.6072" stop-color="#F3F4FB"/>
<stop offset="0.8189" stop-color="#E4E6F7"/>
<stop offset="1" stop-color="#D0D4F1"/>
</linearGradient>
<linearGradient id="paint17_linear_595_1060" x1="207.845" y1="109.297" x2="236.61" y2="74.761" gradientUnits="userSpaceOnUse">
<stop stop-color="white"/>
<stop offset="0.3608" stop-color="#FCFCFE"/>
<stop offset="0.6072" stop-color="#F3F4FB"/>
<stop offset="0.8189" stop-color="#E4E6F7"/>
<stop offset="1" stop-color="#D0D4F1"/>
</linearGradient>
<linearGradient id="paint18_linear_595_1060" x1="414.98" y1="275.788" x2="428.273" y2="235.313" gradientUnits="userSpaceOnUse">
<stop stop-color="white"/>
<stop offset="0.3608" stop-color="#FCFCFE"/>
<stop offset="0.6072" stop-color="#F3F4FB"/>
<stop offset="0.8189" stop-color="#E4E6F7"/>
<stop offset="1" stop-color="#D0D4F1"/>
</linearGradient>
<linearGradient id="paint19_linear_595_1060" x1="35.6875" y1="306.25" x2="47.4447" y2="270.454" gradientUnits="userSpaceOnUse">
<stop stop-color="white"/>
<stop offset="0.3608" stop-color="#FCFCFE"/>
<stop offset="0.6072" stop-color="#F3F4FB"/>
<stop offset="0.8189" stop-color="#E4E6F7"/>
<stop offset="1" stop-color="#D0D4F1"/>
</linearGradient>
<linearGradient id="paint20_linear_595_1060" x1="418.26" y1="353.266" x2="434.443" y2="303.993" gradientUnits="userSpaceOnUse">
<stop stop-color="white"/>
<stop offset="0.3608" stop-color="#FCFCFE"/>
<stop offset="0.6072" stop-color="#F3F4FB"/>
<stop offset="0.8189" stop-color="#E4E6F7"/>
<stop offset="1" stop-color="#D0D4F1"/>
</linearGradient>
<linearGradient id="paint21_linear_595_1060" x1="367.619" y1="326.916" x2="386.146" y2="270.509" gradientUnits="userSpaceOnUse">
<stop stop-color="white"/>
<stop offset="0.3608" stop-color="#FCFCFE"/>
<stop offset="0.6072" stop-color="#F3F4FB"/>
<stop offset="0.8189" stop-color="#E4E6F7"/>
<stop offset="1" stop-color="#D0D4F1"/>
</linearGradient>
<linearGradient id="paint22_linear_595_1060" x1="78.52" y1="206.911" x2="94.7035" y2="157.638" gradientUnits="userSpaceOnUse">
<stop stop-color="white"/>
<stop offset="0.3608" stop-color="#FCFCFE"/>
<stop offset="0.6072" stop-color="#F3F4FB"/>
<stop offset="0.8189" stop-color="#E4E6F7"/>
<stop offset="1" stop-color="#D0D4F1"/>
</linearGradient>
<linearGradient id="paint23_linear_595_1060" x1="80.2162" y1="193.234" x2="100.592" y2="131.196" gradientUnits="userSpaceOnUse">
<stop stop-color="white"/>
<stop offset="0.3608" stop-color="#FCFCFE"/>
<stop offset="0.6072" stop-color="#F3F4FB"/>
<stop offset="0.8189" stop-color="#E4E6F7"/>
<stop offset="1" stop-color="#D0D4F1"/>
</linearGradient>
<linearGradient id="paint24_linear_595_1060" x1="368.469" y1="415.119" x2="384.653" y2="365.846" gradientUnits="userSpaceOnUse">
<stop stop-color="white"/>
<stop offset="0.3608" stop-color="#FCFCFE"/>
<stop offset="0.6072" stop-color="#F3F4FB"/>
<stop offset="0.8189" stop-color="#E4E6F7"/>
<stop offset="1" stop-color="#D0D4F1"/>
</linearGradient>
<linearGradient id="paint25_linear_595_1060" x1="321.851" y1="387.843" x2="338.034" y2="338.569" gradientUnits="userSpaceOnUse">
<stop stop-color="#7DDCC4"/>
<stop offset="1" stop-color="#4575AD"/>
</linearGradient>
<linearGradient id="paint26_linear_595_1060" x1="370.165" y1="401.443" x2="390.542" y2="339.404" gradientUnits="userSpaceOnUse">
<stop stop-color="white"/>
<stop offset="0.3608" stop-color="#FCFCFE"/>
<stop offset="0.6072" stop-color="#F3F4FB"/>
<stop offset="0.8189" stop-color="#E4E6F7"/>
<stop offset="1" stop-color="#D0D4F1"/>
</linearGradient>
<linearGradient id="paint27_linear_595_1060" x1="117.957" y1="109.33" x2="178.811" y2="171.531" gradientUnits="userSpaceOnUse">
<stop stop-color="#A18CD9"/>
<stop offset="0.332" stop-color="#AEA0E0"/>
<stop offset="1" stop-color="#D0D4F1"/>
</linearGradient>
<linearGradient id="paint28_linear_595_1060" x1="104.886" y1="295.211" x2="165.739" y2="357.413" gradientUnits="userSpaceOnUse">
<stop stop-color="#A18CD9"/>
<stop offset="0.332" stop-color="#AEA0E0"/>
<stop offset="1" stop-color="#D0D4F1"/>
</linearGradient>
<linearGradient id="paint29_linear_595_1060" x1="132.75" y1="105.662" x2="154.933" y2="130.768" gradientUnits="userSpaceOnUse">
<stop stop-color="white"/>
<stop offset="1" stop-color="#F6E1DD"/>
</linearGradient>
<linearGradient id="paint30_linear_595_1060" x1="131.301" y1="112.14" x2="150.396" y2="133.751" gradientUnits="userSpaceOnUse">
<stop stop-color="white"/>
<stop offset="1" stop-color="#F6E1DD"/>
</linearGradient>
<radialGradient id="paint31_radial_595_1060" cx="0" cy="0" r="1" gradientUnits="userSpaceOnUse" gradientTransform="translate(291.903 258.146) rotate(31.3596) scale(41.6443 21.3258)">
<stop stop-color="#FFD0E1"/>
<stop offset="1" stop-color="#D29ECE" stop-opacity="0"/>
</radialGradient>
<radialGradient id="paint32_radial_595_1060" cx="0" cy="0" r="1" gradientUnits="userSpaceOnUse" gradientTransform="translate(286.086 258.44) rotate(31.3616) scale(58.8989 7.86384)">
<stop stop-color="#FFD0E1"/>
<stop offset="1" stop-color="#D29ECE" stop-opacity="0"/>
</radialGradient>
<radialGradient id="paint33_radial_595_1060" cx="0" cy="0" r="1" gradientUnits="userSpaceOnUse" gradientTransform="translate(272.134 240.694) scale(1.52409 1.52491)">
<stop offset="0.3305" stop-color="#F9EDE6" stop-opacity="0"/>
<stop offset="1" stop-color="#F9EDE6" stop-opacity="0.8"/>
</radialGradient>
<radialGradient id="paint34_radial_595_1060" cx="0" cy="0" r="1" gradientUnits="userSpaceOnUse" gradientTransform="translate(308.357 209.589) scale(1.52409 1.5249)">
<stop offset="0.3305" stop-color="#F9EDE6" stop-opacity="0"/>
<stop offset="1" stop-color="#F9EDE6" stop-opacity="0.8"/>
</radialGradient>
<radialGradient id="paint35_radial_595_1060" cx="0" cy="0" r="1" gradientUnits="userSpaceOnUse" gradientTransform="translate(267.529 228.951) scale(1.52404 1.52491)">
<stop offset="0.3305" stop-color="#F9EDE6" stop-opacity="0"/>
<stop offset="1" stop-color="#F9EDE6" stop-opacity="0.8"/>
</radialGradient>
<radialGradient id="paint36_radial_595_1060" cx="0" cy="0" r="1" gradientUnits="userSpaceOnUse" gradientTransform="translate(259.69 219.619) scale(0.983416)">
<stop offset="0.3305" stop-color="#F9EDE6" stop-opacity="0"/>
<stop offset="1" stop-color="#F9EDE6" stop-opacity="0.8"/>
</radialGradient>
<radialGradient id="paint37_radial_595_1060" cx="0" cy="0" r="1" gradientUnits="userSpaceOnUse" gradientTransform="translate(322.269 269.253) scale(1.52404 1.52496)">
<stop offset="0.3305" stop-color="#F9EDE6" stop-opacity="0"/>
<stop offset="1" stop-color="#F9EDE6" stop-opacity="0.8"/>
</radialGradient>
<radialGradient id="paint38_radial_595_1060" cx="0" cy="0" r="1" gradientUnits="userSpaceOnUse" gradientTransform="translate(309.698 251.942) scale(1.52409 1.52499)">
<stop offset="0.3305" stop-color="#F9EDE6" stop-opacity="0"/>
<stop offset="1" stop-color="#F9EDE6" stop-opacity="0.8"/>
</radialGradient>
<radialGradient id="paint39_radial_595_1060" cx="0" cy="0" r="1" gradientUnits="userSpaceOnUse" gradientTransform="translate(311.185 232.468) scale(1.52409 1.52496)">
<stop offset="0.3305" stop-color="#F9EDE6" stop-opacity="0"/>
<stop offset="1" stop-color="#F9EDE6" stop-opacity="0.8"/>
</radialGradient>
<radialGradient id="paint40_radial_595_1060" cx="0" cy="0" r="1" gradientUnits="userSpaceOnUse" gradientTransform="translate(291.181 200.551) scale(2.87569 2.8773)">
<stop offset="0.3305" stop-color="#F9EDE6" stop-opacity="0"/>
<stop offset="1" stop-color="#F9EDE6" stop-opacity="0.8"/>
</radialGradient>
<radialGradient id="paint41_radial_595_1060" cx="0" cy="0" r="1" gradientUnits="userSpaceOnUse" gradientTransform="translate(310.915 266.999) scale(2.06473 2.06594)">
<stop offset="0.3305" stop-color="#F9EDE6" stop-opacity="0"/>
<stop offset="1" stop-color="#F9EDE6" stop-opacity="0.8"/>
</radialGradient>
<radialGradient id="paint42_radial_595_1060" cx="0" cy="0" r="1" gradientUnits="userSpaceOnUse" gradientTransform="translate(313.799 195.412) scale(2.06473 2.06585)">
<stop offset="0.3305" stop-color="#F9EDE6" stop-opacity="0"/>
<stop offset="1" stop-color="#F9EDE6" stop-opacity="0.8"/>
</radialGradient>
<radialGradient id="paint43_radial_595_1060" cx="0" cy="0" r="1" gradientUnits="userSpaceOnUse" gradientTransform="translate(64.0157 126.448) scale(7.608 7.61245)">
<stop offset="0.3305" stop-color="#F9EDE6" stop-opacity="0"/>
<stop offset="1" stop-color="#F9EDE6" stop-opacity="0.8"/>
</radialGradient>
<radialGradient id="paint44_radial_595_1060" cx="0" cy="0" r="1" gradientUnits="userSpaceOnUse" gradientTransform="translate(165.763 388.478) scale(6.36754 6.37129)">
<stop offset="0.3305" stop-color="#F9EDE6" stop-opacity="0"/>
<stop offset="1" stop-color="#F9EDE6" stop-opacity="0.8"/>
</radialGradient>
<linearGradient id="paint45_linear_595_1060" x1="23.6773" y1="185.749" x2="32.274" y2="188.304" gradientUnits="userSpaceOnUse">
<stop stop-color="white"/>
<stop offset="0.3608" stop-color="#FCFCFE"/>
<stop offset="0.6072" stop-color="#F3F4FB"/>
<stop offset="0.8189" stop-color="#E4E6F7"/>
<stop offset="1" stop-color="#D0D4F1"/>
</linearGradient>
</defs>
</svg>
