<svg width="24" height="25" viewBox="0 0 24 25" fill="none" xmlns="http://www.w3.org/2000/svg">
<path d="M12 2.5C6.486 2.5 2 6.986 2 12.5C2 18.014 6.486 22.5 12 22.5C17.514 22.5 22 18.014 22 12.5C22 6.986 17.514 2.5 12 2.5ZM12 20.5C7.589 20.5 4 16.911 4 12.5C4 8.089 7.589 4.5 12 4.5C16.411 4.5 20 8.089 20 12.5C20 16.911 16.411 20.5 12 20.5Z" fill="#1EC925"/>
<path d="M9.99909 14.087L7.70009 11.792L6.28809 13.208L10.0011 16.913L16.7071 10.207L15.2931 8.79297L9.99909 14.087Z" fill="#1EC925"/>
</svg>
